<?xml version="1.0" encoding="UTF-8" standalone="no"?>
<!-- Created with Inkscape (http://www.inkscape.org/) -->

<svg
   xmlns:dc="http://purl.org/dc/elements/1.1/"
   xmlns:cc="http://creativecommons.org/ns#"
   xmlns:rdf="http://www.w3.org/1999/02/22-rdf-syntax-ns#"
   xmlns:svg="http://www.w3.org/2000/svg"
   xmlns="http://www.w3.org/2000/svg"
   xmlns:xlink="http://www.w3.org/1999/xlink"
   xmlns:sodipodi="http://sodipodi.sourceforge.net/DTD/sodipodi-0.dtd"
   xmlns:inkscape="http://www.inkscape.org/namespaces/inkscape"
   width="568"
   height="320"
   id="svg2"
   version="1.1"
   inkscape:version="0.91 r13725"
   sodipodi:docname="ChoosePlayerScreen_Redesign.svg"
   inkscape:export-filename="/Users/pplsuser/Documents/MPI/LanguageMemory/AppDevelopment/Assets/Images/GuessRound/Drag2.png"
   inkscape:export-xdpi="90.040451"
   inkscape:export-ydpi="90.040451">
  <defs
     id="defs4">
    <linearGradient
       id="linearGradient32030">
      <stop
         id="stop32032"
         offset="0"
         style="stop-color:#fff4f4;stop-opacity:1;" />
      <stop
         style="stop-color:#c80000;stop-opacity:1;"
         offset="1"
         id="stop32034" />
    </linearGradient>
    <linearGradient
       id="linearGradient32016">
      <stop
         id="stop32018"
         offset="0"
         style="stop-color:#f4fdff;stop-opacity:1;" />
      <stop
         style="stop-color:#009ec8;stop-opacity:1;"
         offset="1"
         id="stop32020" />
    </linearGradient>
    <linearGradient
       inkscape:collect="always"
       id="linearGradient4004">
      <stop
         style="stop-color:#c1e3f1;stop-opacity:1;"
         offset="0"
         id="stop4006" />
      <stop
         style="stop-color:#c1e3f1;stop-opacity:0;"
         offset="1"
         id="stop4008" />
    </linearGradient>
    <linearGradient
       id="linearGradient4134">
      <stop
         style="stop-color:#f4fdff;stop-opacity:1;"
         offset="0"
         id="stop4136" />
      <stop
         id="stop32014"
         offset="1"
         style="stop-color:#009ec8;stop-opacity:1;" />
    </linearGradient>
    <linearGradient
       id="linearGradient4227">
      <stop
         id="stop4229"
         offset="0"
         style="stop-color:#ffffff;stop-opacity:1;" />
      <stop
         id="stop4231"
         offset="1"
         style="stop-color:#ffffff;stop-opacity:0;" />
    </linearGradient>
    <linearGradient
       id="linearGradient4235">
      <stop
         style="stop-color:#ffffff;stop-opacity:1;"
         offset="0"
         id="stop4237" />
      <stop
         style="stop-color:#ffffff;stop-opacity:0;"
         offset="1"
         id="stop4239" />
    </linearGradient>
    <linearGradient
       id="linearGradient4241">
      <stop
         id="stop4243"
         offset="0"
         style="stop-color:#ffffff;stop-opacity:1;" />
      <stop
         id="stop4245"
         offset="1"
         style="stop-color:#8fcee6;stop-opacity:1;" />
    </linearGradient>
    <linearGradient
       id="linearGradient4267">
      <stop
         style="stop-color:#ffffff;stop-opacity:1;"
         offset="0"
         id="stop4269" />
      <stop
         style="stop-color:#f6aa8b;stop-opacity:1;"
         offset="1"
         id="stop4271" />
    </linearGradient>
    <linearGradient
       id="linearGradient4273">
      <stop
         style="stop-color:#ffffff;stop-opacity:1;"
         offset="0"
         id="stop4275" />
      <stop
         style="stop-color:#00a47a;stop-opacity:1;"
         offset="1"
         id="stop4277" />
    </linearGradient>
    <linearGradient
       inkscape:collect="always"
       xlink:href="#linearGradient4004"
       id="linearGradient4021"
       gradientUnits="userSpaceOnUse"
       x1="284.65509"
       y1="143.19354"
       x2="284.65509"
       y2="188.97968" />
    <linearGradient
       inkscape:collect="always"
       xlink:href="#linearGradient4004"
       id="linearGradient4034"
       gradientUnits="userSpaceOnUse"
       x1="284.65509"
       y1="143.19354"
       x2="284.65509"
       y2="188.97968" />
    <linearGradient
       inkscape:collect="always"
       xlink:href="#linearGradient4004"
       id="linearGradient4048"
       gradientUnits="userSpaceOnUse"
       x1="284.65509"
       y1="143.19354"
       x2="284.65509"
       y2="188.97968" />
    <linearGradient
       y2="368.75067"
       x2="-1198.9047"
       y1="-120.91417"
       x1="-1200.9249"
       gradientTransform="translate(28.571429,1160)"
       gradientUnits="userSpaceOnUse"
       id="linearGradient3101"
       xlink:href="#linearGradient4241-9"
       inkscape:collect="always" />
    <linearGradient
       y2="-122.56577"
       x2="-1118.692"
       y1="-566.07471"
       x1="-1120.7123"
       gradientTransform="translate(28.571429,1160)"
       gradientUnits="userSpaceOnUse"
       id="linearGradient3099"
       xlink:href="#linearGradient4241-9"
       inkscape:collect="always" />
    <linearGradient
       y2="238.73714"
       x2="-791.54694"
       y1="-749.87787"
       x1="-791.54694"
       gradientTransform="matrix(1.0479533,0,0,1.0298851,-337.56044,1257.0032)"
       gradientUnits="userSpaceOnUse"
       id="linearGradient3097"
       xlink:href="#linearGradient4134-1"
       inkscape:collect="always" />
    <linearGradient
       gradientUnits="userSpaceOnUse"
       y2="786.49591"
       x2="296.11093"
       y1="786.49591"
       x1="256.89218"
       id="linearGradient3872"
       xlink:href="#linearGradient4241-9"
       inkscape:collect="always" />
    <linearGradient
       gradientUnits="userSpaceOnUse"
       y2="786.49591"
       x2="296.11093"
       y1="786.49591"
       x1="256.89218"
       id="linearGradient3870"
       xlink:href="#linearGradient4241-9"
       inkscape:collect="always" />
    <linearGradient
       id="linearGradient4134-1">
      <stop
         style="stop-color:#009ec8;stop-opacity:1;"
         offset="0"
         id="stop4136-1" />
      <stop
         style="stop-color:#8ecfe6;stop-opacity:1;"
         offset="1"
         id="stop4138-3" />
    </linearGradient>
    <linearGradient
       id="linearGradient4227-5">
      <stop
         id="stop4229-5"
         offset="0"
         style="stop-color:#ffffff;stop-opacity:1;" />
      <stop
         id="stop4231-6"
         offset="1"
         style="stop-color:#ffffff;stop-opacity:0;" />
    </linearGradient>
    <linearGradient
       id="linearGradient4235-6">
      <stop
         style="stop-color:#ffffff;stop-opacity:1;"
         offset="0"
         id="stop4237-9" />
      <stop
         style="stop-color:#ffffff;stop-opacity:0;"
         offset="1"
         id="stop4239-9" />
    </linearGradient>
    <linearGradient
       id="linearGradient4241-9">
      <stop
         id="stop4243-0"
         offset="0"
         style="stop-color:#ffffff;stop-opacity:1;" />
      <stop
         id="stop4245-8"
         offset="1"
         style="stop-color:#8ecfe6;stop-opacity:1;" />
    </linearGradient>
    <linearGradient
       id="linearGradient4267-6">
      <stop
         style="stop-color:#ffffff;stop-opacity:1;"
         offset="0"
         id="stop4269-4" />
      <stop
         style="stop-color:#f6aa8b;stop-opacity:1;"
         offset="1"
         id="stop4271-5" />
    </linearGradient>
    <linearGradient
       id="linearGradient4273-1">
      <stop
         style="stop-color:#ffffff;stop-opacity:1;"
         offset="0"
         id="stop4275-9" />
      <stop
         style="stop-color:#00a47a;stop-opacity:1;"
         offset="1"
         id="stop4277-5" />
    </linearGradient>
    <linearGradient
       inkscape:collect="always"
       xlink:href="#linearGradient4241-9"
       id="linearGradient5718"
       gradientUnits="userSpaceOnUse"
       x1="256.89218"
       y1="786.49591"
       x2="296.11093"
       y2="786.49591" />
    <linearGradient
       inkscape:collect="always"
       xlink:href="#linearGradient4241-9"
       id="linearGradient5722"
       gradientUnits="userSpaceOnUse"
       x1="256.89218"
       y1="786.49591"
       x2="296.11093"
       y2="786.49591" />
    <linearGradient
       y2="188.97968"
       x2="284.65509"
       y1="143.19354"
       x1="284.65509"
       gradientUnits="userSpaceOnUse"
       id="linearGradient4048-5"
       xlink:href="#linearGradient4004-1"
       inkscape:collect="always" />
    <linearGradient
       y2="188.97968"
       x2="284.65509"
       y1="143.19354"
       x1="284.65509"
       gradientUnits="userSpaceOnUse"
       id="linearGradient4034-0"
       xlink:href="#linearGradient4004-1"
       inkscape:collect="always" />
    <linearGradient
       y2="188.97968"
       x2="284.65509"
       y1="143.19354"
       x1="284.65509"
       gradientUnits="userSpaceOnUse"
       id="linearGradient4021-4"
       xlink:href="#linearGradient4004-1"
       inkscape:collect="always" />
    <linearGradient
       gradientTransform="matrix(1.007005,0,0,1.0125018,-1.9893866,-2.0002899)"
       gradientUnits="userSpaceOnUse"
       y2="317.5126"
       x2="305.88995"
       y1="2.3651478"
       x1="305.88995"
       id="linearGradient4466-0"
       xlink:href="#linearGradient4134-9"
       inkscape:collect="always" />
    <linearGradient
       id="linearGradient4273-4">
      <stop
         id="stop4275-2"
         offset="0"
         style="stop-color:#ffffff;stop-opacity:1;" />
      <stop
         id="stop4277-2"
         offset="1"
         style="stop-color:#00a47a;stop-opacity:1;" />
    </linearGradient>
    <linearGradient
       id="linearGradient4267-3">
      <stop
         id="stop4269-0"
         offset="0"
         style="stop-color:#ffffff;stop-opacity:1;" />
      <stop
         id="stop4271-53"
         offset="1"
         style="stop-color:#f6aa8b;stop-opacity:1;" />
    </linearGradient>
    <linearGradient
       id="linearGradient4241-5">
      <stop
         style="stop-color:#ffffff;stop-opacity:1;"
         offset="0"
         id="stop4243-5" />
      <stop
         style="stop-color:#8ecfe6;stop-opacity:1;"
         offset="1"
         id="stop4245-4" />
    </linearGradient>
    <linearGradient
       id="linearGradient4235-7">
      <stop
         id="stop4237-0"
         offset="0"
         style="stop-color:#ffffff;stop-opacity:1;" />
      <stop
         id="stop4239-0"
         offset="1"
         style="stop-color:#ffffff;stop-opacity:0;" />
    </linearGradient>
    <linearGradient
       id="linearGradient4227-55">
      <stop
         style="stop-color:#ffffff;stop-opacity:1;"
         offset="0"
         id="stop4229-2" />
      <stop
         style="stop-color:#ffffff;stop-opacity:0;"
         offset="1"
         id="stop4231-5" />
    </linearGradient>
    <linearGradient
       id="linearGradient4134-9">
      <stop
         id="stop4136-2"
         offset="0"
         style="stop-color:#009ec8;stop-opacity:1;" />
      <stop
         id="stop4138"
         offset="1"
         style="stop-color:#8ecfe6;stop-opacity:1;" />
    </linearGradient>
    <linearGradient
       id="linearGradient4004-1"
       inkscape:collect="always">
      <stop
         id="stop4006-2"
         offset="0"
         style="stop-color:#c1e3f1;stop-opacity:1;" />
      <stop
         id="stop4008-4"
         offset="1"
         style="stop-color:#c1e3f1;stop-opacity:0;" />
    </linearGradient>
    <linearGradient
       inkscape:collect="always"
       xlink:href="#linearGradient4134-9"
       id="linearGradient36048"
       gradientUnits="userSpaceOnUse"
       gradientTransform="matrix(1.007005,0,0,1.0125018,-1.9893866,-2.0002899)"
       x1="305.88995"
       y1="2.3651478"
       x2="305.88995"
       y2="317.5126" />
    <linearGradient
       y2="188.97968"
       x2="284.65509"
       y1="143.19354"
       x1="284.65509"
       gradientUnits="userSpaceOnUse"
       id="linearGradient4048-2"
       xlink:href="#linearGradient4004-2"
       inkscape:collect="always" />
    <linearGradient
       y2="188.97968"
       x2="284.65509"
       y1="143.19354"
       x1="284.65509"
       gradientUnits="userSpaceOnUse"
       id="linearGradient4034-7"
       xlink:href="#linearGradient4004-2"
       inkscape:collect="always" />
    <linearGradient
       y2="188.97968"
       x2="284.65509"
       y1="143.19354"
       x1="284.65509"
       gradientUnits="userSpaceOnUse"
       id="linearGradient4021-0"
       xlink:href="#linearGradient4004-2"
       inkscape:collect="always" />
    <linearGradient
       gradientTransform="matrix(1.007005,0,0,1.0125018,-1.9893866,-2.0002899)"
       gradientUnits="userSpaceOnUse"
       y2="317.5126"
       x2="305.88995"
       y1="2.3651478"
       x1="305.88995"
       id="linearGradient4466"
       xlink:href="#linearGradient4134-11"
       inkscape:collect="always" />
    <linearGradient
       id="linearGradient4273-2">
      <stop
         id="stop4275-99"
         offset="0"
         style="stop-color:#ffffff;stop-opacity:1;" />
      <stop
         id="stop4277-4"
         offset="1"
         style="stop-color:#00a47a;stop-opacity:1;" />
    </linearGradient>
    <linearGradient
       id="linearGradient4267-62">
      <stop
         id="stop4269-7"
         offset="0"
         style="stop-color:#ffffff;stop-opacity:1;" />
      <stop
         id="stop4271-8"
         offset="1"
         style="stop-color:#f6aa8b;stop-opacity:1;" />
    </linearGradient>
    <linearGradient
       id="linearGradient4241-2">
      <stop
         style="stop-color:#ffffff;stop-opacity:1;"
         offset="0"
         id="stop4243-8" />
      <stop
         style="stop-color:#8ecfe6;stop-opacity:1;"
         offset="1"
         id="stop4245-9" />
    </linearGradient>
    <linearGradient
       id="linearGradient4235-0">
      <stop
         id="stop4237-2"
         offset="0"
         style="stop-color:#ffffff;stop-opacity:1;" />
      <stop
         id="stop4239-8"
         offset="1"
         style="stop-color:#ffffff;stop-opacity:0;" />
    </linearGradient>
    <linearGradient
       id="linearGradient4227-9">
      <stop
         style="stop-color:#ffffff;stop-opacity:1;"
         offset="0"
         id="stop4229-29" />
      <stop
         style="stop-color:#ffffff;stop-opacity:0;"
         offset="1"
         id="stop4231-61" />
    </linearGradient>
    <linearGradient
       id="linearGradient4134-11">
      <stop
         id="stop4136-5"
         offset="0"
         style="stop-color:#009ec8;stop-opacity:1;" />
      <stop
         id="stop4138-0"
         offset="1"
         style="stop-color:#8ecfe6;stop-opacity:1;" />
    </linearGradient>
    <linearGradient
       id="linearGradient4004-2"
       inkscape:collect="always">
      <stop
         id="stop4006-4"
         offset="0"
         style="stop-color:#c1e3f1;stop-opacity:1;" />
      <stop
         id="stop4008-6"
         offset="1"
         style="stop-color:#c1e3f1;stop-opacity:0;" />
    </linearGradient>
    <clipPath
       id="clipPath4329"
       clipPathUnits="userSpaceOnUse">
      <path
         inkscape:connector-curvature="0"
         id="path4331"
         d="M 0,320 568,320 568,0 0,0 0,320 Z" />
    </clipPath>
    <clipPath
       id="clipPath4337"
       clipPathUnits="userSpaceOnUse">
      <path
         inkscape:connector-curvature="0"
         id="path4339"
         d="M 0,320 568,320 568,0 0,0 0,320 Z" />
    </clipPath>
    <clipPath
       id="clipPath4341"
       clipPathUnits="userSpaceOnUse">
      <path
         inkscape:connector-curvature="0"
         id="path4343"
         d="M 0,320 568,320 568,0 0,0 0,320 Z" />
    </clipPath>
    <linearGradient
       id="linearGradient4345"
       spreadMethod="pad"
       gradientTransform="matrix(-1.4e-5,-320.00049,-320.00049,1.4e-5,283.99951,320)"
       gradientUnits="userSpaceOnUse"
       y2="0"
       x2="1"
       y1="0"
       x1="0">
      <stop
         id="stop4347"
         offset="0"
         style="stop-opacity:1;stop-color:#009dc8" />
      <stop
         id="stop4349"
         offset="1"
         style="stop-opacity:1;stop-color:#80cee3" />
    </linearGradient>
    <clipPath
       id="clipPath4393"
       clipPathUnits="userSpaceOnUse">
      <path
         inkscape:connector-curvature="0"
         id="path4395"
         d="m 185.664,220.268 229.297,0 0,-39.845 -229.297,0 0,39.845 z" />
    </clipPath>
    <clipPath
       id="clipPath4397"
       clipPathUnits="userSpaceOnUse">
      <path
         inkscape:connector-curvature="0"
         id="path4399"
         d="m 185.664,220.268 229.297,0 0,-39.845 -229.297,0 0,39.845 z" />
    </clipPath>
    <clipPath
       id="clipPath4425"
       clipPathUnits="userSpaceOnUse">
      <path
         inkscape:connector-curvature="0"
         id="path4427"
         d="m 176.664,208.714 185.953,0 0,-32.312 -185.953,0 0,32.312 z" />
    </clipPath>
    <clipPath
       id="clipPath4429"
       clipPathUnits="userSpaceOnUse">
      <path
         inkscape:connector-curvature="0"
         id="path4431"
         d="m 176.664,208.714 185.953,0 0,-32.312 -185.953,0 0,32.312 z" />
    </clipPath>
    <clipPath
       id="clipPath4453"
       clipPathUnits="userSpaceOnUse">
      <path
         inkscape:connector-curvature="0"
         id="path4455"
         d="m 123.167,104.055 84.671,0 0,-16.1566 -84.671,0 0,16.1566 z" />
    </clipPath>
    <clipPath
       id="clipPath4457"
       clipPathUnits="userSpaceOnUse">
      <path
         inkscape:connector-curvature="0"
         id="path4459"
         d="m 123.167,104.055 84.671,0 0,-16.1566 -84.671,0 0,16.1566 z" />
    </clipPath>
    <clipPath
       id="clipPath4481"
       clipPathUnits="userSpaceOnUse">
      <path
         inkscape:connector-curvature="0"
         id="path4483"
         d="m 235.557,104.055 102.461,0 0,-16.1566 -102.461,0 0,16.1566 z" />
    </clipPath>
    <clipPath
       id="clipPath4485"
       clipPathUnits="userSpaceOnUse">
      <path
         inkscape:connector-curvature="0"
         id="path4487"
         d="m 235.557,104.055 102.461,0 0,-16.1566 -102.461,0 0,16.1566 z" />
    </clipPath>
    <clipPath
       id="clipPath4509"
       clipPathUnits="userSpaceOnUse">
      <path
         inkscape:connector-curvature="0"
         id="path4511"
         d="m 367.33,104.055 83.367,0 0,-16.1566 -83.367,0 0,16.1566 z" />
    </clipPath>
    <clipPath
       id="clipPath4513"
       clipPathUnits="userSpaceOnUse">
      <path
         inkscape:connector-curvature="0"
         id="path4515"
         d="m 367.33,104.055 83.367,0 0,-16.1566 -83.367,0 0,16.1566 z" />
    </clipPath>
  </defs>
  <sodipodi:namedview
     id="base"
     pagecolor="#ffffff"
     bordercolor="#666666"
     borderopacity="1.0"
     inkscape:pageopacity="0.0"
     inkscape:pageshadow="2"
     inkscape:zoom="1.7777263"
     inkscape:cx="154.41227"
     inkscape:cy="162.08294"
     inkscape:document-units="px"
     inkscape:current-layer="layer11"
     showgrid="false"
     inkscape:window-width="1906"
     inkscape:window-height="1135"
     inkscape:window-x="0"
     inkscape:window-y="0"
     inkscape:window-maximized="0"
     fit-margin-top="0"
     fit-margin-left="0"
     fit-margin-right="0"
     fit-margin-bottom="0" />
  <metadata
     id="metadata7">
    <rdf:RDF>
      <cc:Work
         rdf:about="">
        <dc:format>image/svg+xml</dc:format>
        <dc:type
           rdf:resource="http://purl.org/dc/dcmitype/StillImage" />
        <dc:title />
      </cc:Work>
    </rdf:RDF>
  </metadata>
  <g
     inkscape:groupmode="layer"
     id="layer15"
     inkscape:label="Background"
     style="display:inline"
     transform="translate(638.97255,-3.37053)" />
  <g
     inkscape:groupmode="layer"
     id="layer1"
     inkscape:label="SwitchPlayerButton"
     transform="translate(638.97255,-3.37053)">
    <g
       id="g4333"
       transform="matrix(1,0,0,-1,-638.97255,323.37053)">
      <g
         id="g4335" />
      <g
         id="g4351">
        <g
           clip-path="url(#clipPath4337)"
           id="g4353">
          <g
             id="g4355">
            <g
               clip-path="url(#clipPath4341)"
               id="g4357">
              <g
                 id="g4359">
                <g
                   id="g4361">
                  <path
                     d="M 0,320 568,320 568,0 0,0 0,320 Z"
                     style="fill:url(#linearGradient4345);stroke:none"
                     id="path4363"
                     inkscape:connector-curvature="0" />
                </g>
              </g>
            </g>
          </g>
        </g>
      </g>
    </g>
    <g
       style="display:inline"
       id="g4373"
       transform="matrix(1,0,0,-1,-292.89635,238.65573)">
      <path
         d="m 0,0 c 0,-3.117 -2.551,-5.668 -5.669,-5.668 l -106.299,0 c -3.118,0 -5.669,2.551 -5.669,5.668 l 0,61.42 c 0,3.117 2.551,5.669 5.669,5.669 l 106.299,0 C -2.551,67.089 0,64.537 0,61.42 L 0,0 Z"
         style="fill:#c1e3f1;fill-opacity:1;fill-rule:nonzero;stroke:none"
         id="path4375"
         inkscape:connector-curvature="0" />
    </g>
    <g
       style="display:inline;fill:#ef2b2d"
       id="g4377"
       transform="matrix(1,0,0,-1,-359.51795,184.77093)">
      <path
         d="m 0,0 c 5.639,3.66 10.328,3.203 14.122,-1.127 l 2.192,3.248 0.599,-7.357 -6.789,-1.817 2.063,3.059 C 8.159,1.154 4.13,-1.332 0.102,-2.998 L 0,0 Z"
         style="fill:#ef2b2d;fill-opacity:1;fill-rule:nonzero;stroke:none"
         id="path4379"
         inkscape:connector-curvature="0" />
    </g>
    <g
       style="display:inline"
       id="g4381"
       transform="matrix(1,0,0,-1,-343.75865,200.42713)">
      <path
         d="m 0,0 c -5.638,-3.66 -10.327,-3.203 -14.122,1.127 l -2.192,-3.248 -0.598,7.355 6.788,1.817 -2.063,-3.057 C -8.158,-1.154 -4.13,1.334 -0.101,2.996 L 0,0 Z"
         style="fill:#0073ab;fill-opacity:1;fill-rule:nonzero;stroke:none"
         id="path4383"
         inkscape:connector-curvature="0" />
    </g>
    <g
       style="display:inline;fill:#ef2b2d"
       id="g4561"
       transform="matrix(1,0,0,-1,-384.52235,203.50723)">
      <path
         d="M 0,0 C 7.224,-3.127 15.979,-3.406 22.705,-0.17 22.705,12.701 0,12.697 0,0"
         style="fill:#ef2b2d;fill-opacity:1;fill-rule:nonzero;stroke:none"
         id="path4563"
         inkscape:connector-curvature="0" />
    </g>
    <g
       style="display:inline;fill:#ef2b2d"
       id="g4565"
       transform="matrix(1,0,0,-1,-373.17035,181.78653)">
      <path
         d="m 0,0 c 3.917,0 7.093,-3.176 7.093,-7.092 0,-3.918 -3.176,-7.094 -7.093,-7.094 -3.917,0 -7.092,3.176 -7.092,7.094 C -7.092,-3.176 -3.917,0 0,0"
         style="fill:#ef2b2d;fill-opacity:1;fill-rule:nonzero;stroke:none"
         id="path4567"
         inkscape:connector-curvature="0" />
    </g>
    <g
       style="display:inline"
       id="g4569"
       transform="matrix(1,0,0,-1,-343.02135,203.96623)">
      <path
         d="M 0,0 C 7.225,-3.129 15.979,-3.408 22.705,-0.172 22.705,12.699 0,12.695 0,0"
         style="fill:#0073ab;fill-opacity:1;fill-rule:nonzero;stroke:none"
         id="path4571"
         inkscape:connector-curvature="0" />
    </g>
    <g
       style="display:inline;fill:#0073ab"
       id="g4573"
       transform="matrix(1,0,0,-1,-331.66885,182.24753)">
      <path
         d="m 0,0 c 3.917,0 7.093,-3.174 7.093,-7.092 0,-3.918 -3.176,-7.094 -7.093,-7.094 -3.917,0 -7.093,3.176 -7.093,7.094 C -7.093,-3.174 -3.917,0 0,0"
         style="fill:#0073ab;fill-opacity:1;fill-rule:nonzero;stroke:none"
         id="path4575"
         inkscape:connector-curvature="0" />
    </g>
    <text
       sodipodi:linespacing="110%"
       id="text5887"
       y="232.03563"
       x="-409.98087"
       style="font-style:normal;font-variant:normal;font-weight:normal;font-stretch:normal;font-size:15.60377884px;line-height:110.00000238%;font-family:'Open Sans';-inkscape-font-specification:'Open Sans';text-align:start;writing-mode:lr-tb;text-anchor:start;display:inline;opacity:1;fill:#000000;fill-opacity:1;fill-rule:nonzero;stroke:none;stroke-width:1.79999995;stroke-linecap:round;stroke-linejoin:round;stroke-miterlimit:4;stroke-dasharray:none;stroke-dashoffset:0;stroke-opacity:1"
       xml:space="preserve"><tspan
         y="232.03563"
         x="-409.98087"
         id="tspan5889"
         sodipodi:role="line">SWITCH PLAYER</tspan></text>
  </g>
  <g
     inkscape:groupmode="layer"
     id="layer14"
     inkscape:label="NameField"
     style="display:inline"
     transform="translate(638.97255,-3.37053)">
    <g
       id="g4385"
       transform="matrix(1,0,0,-1,-486.15615,94.00093)">
      <path
         d="m 0,0 295.182,0 c 3.113,0 5.636,-2.523 5.636,-5.636 l 0,-50.562 c 0,-3.114 -2.523,-5.637 -5.636,-5.637 L 0,-61.835 c -3.113,0 -5.637,2.523 -5.637,5.637 l 0,50.562 C -5.637,-2.523 -3.113,0 0,0"
         style="fill:#ffffff;fill-opacity:1;fill-rule:nonzero;stroke:none"
         id="path4387"
         inkscape:connector-curvature="0" />
    </g>
    <g
       id="g4389"
       transform="matrix(1,0,0,-1,-638.97255,323.37053)">
      <g
         id="g4391" />
      <g
         id="g4401">
        <g
           clip-path="url(#clipPath4393)"
           id="g4403">
          <g
             id="g4405">
            <g
               id="g4407" />
            <g
               id="g4409">
              <g
                 clip-path="url(#clipPath4397)"
                 id="g4411">
                <text
                   transform="matrix(1,0,0,-1,185.6636,188.0723)"
                   style="font-variant:normal;font-weight:bold;font-stretch:normal;font-size:39.45890045px;font-family:'Open Sans';-inkscape-font-specification:'Open Sans-Bold';writing-mode:lr-tb;fill:#000000;fill-opacity:1;fill-rule:nonzero;stroke:none"
                   id="text4413">
                  <tspan
                     x="0 20.873758 45.772324 67.987686 78.523209 96.788734 115.26734 141.94156 162.93369 187.83226 207.0882"
                     y="0"
                     sodipodi:role="line"
                     id="tspan4415">CHRISTOPHER</tspan>
                </text>
              </g>
            </g>
          </g>
        </g>
      </g>
    </g>
    <g
       id="g4417"
       transform="matrix(1,0,0,-1,-525.65615,94.00093)"
       style="fill:#ffffff">
      <path
         d="m 0,0 347.322,0 c 3.664,0 6.633,-2.969 6.633,-6.632 l 0,-59.493 c 0,-3.664 -2.969,-6.632 -6.633,-6.632 L 0,-72.757 c -3.664,0 -6.633,2.968 -6.633,6.632 l 0,59.493 C -6.633,-2.969 -3.664,0 0,0"
         style="fill:#ffffff;fill-opacity:1;fill-rule:nonzero;stroke:none"
         id="path4419"
         inkscape:connector-curvature="0" />
    </g>
    <g
       id="g4553"
       transform="matrix(1,0,0,-1,-481.23815,119.26113)"
       style="fill:#ef2b2d">
      <path
         d="m 0,0 c 0.003,-9.329 -7.556,-16.895 -16.885,-16.898 -9.329,-0.004 -16.894,7.556 -16.898,16.884 l 0,0.014 c 0,9.329 7.563,16.891 16.891,16.891 C -7.563,16.891 0,9.329 0,0"
         style="fill:#ef2b2d;fill-opacity:1;fill-rule:nonzero;stroke:none"
         id="path4555"
         inkscape:connector-curvature="0" />
    </g>
    <g
       id="g4557"
       transform="matrix(1,0,0,-1,-525.16495,154.09713)"
       style="fill:#ef2b2d">
      <path
         d="M 0,0 C 17.204,-7.449 38.053,-8.115 54.07,-0.408 54.07,30.243 0,30.238 0,0"
         style="fill:#ef2b2d;fill-opacity:1;fill-rule:nonzero;stroke:none"
         id="path4559"
         inkscape:connector-curvature="0" />
    </g>
    <text
       xml:space="preserve"
       style="font-style:normal;font-variant:normal;font-weight:bold;font-stretch:normal;font-size:33.33517075px;line-height:110.00000238%;font-family:'Open Sans';-inkscape-font-specification:'Open Sans Bold';text-align:start;writing-mode:lr-tb;text-anchor:start;display:inline;fill:#000000;fill-opacity:1;fill-rule:nonzero;stroke:none"
       x="-462.49722"
       y="144.60612"
       id="text3489"
       sodipodi:linespacing="110%"
       inkscape:label="NameFieldText"><tspan
         sodipodi:role="line"
         id="tspan3491"
         x="-462.49722"
         y="144.60612"
         style="fill:#000000">CHRISTOPHER</tspan></text>
  </g>
  <g
     inkscape:groupmode="layer"
     id="layer11"
     inkscape:label="GoButton"
     style="display:inline"
     transform="translate(638.97255,-3.37053)">
    <rect
       style="display:inline;fill:none;fill-opacity:1;fill-rule:nonzero;stroke:none;stroke-width:4.75597811;stroke-linecap:round;stroke-linejoin:round;stroke-miterlimit:4;stroke-dasharray:none;stroke-dashoffset:0;stroke-opacity:1"
       id="rect5787"
       width="103.76788"
       height="67.088707"
       x="-179.54137"
       y="251.35179"
       ry="7.2868099" />
    <g
       style="display:inline;fill:#ffffff"
       id="g4577"
       transform="matrix(1,0,0,-1,-141.44615,281.01113)">
      <path
         d="m 0,0 c 0,0 2.492,0.229 3.759,1.572 4.209,4.461 10.017,7.801 13.38,7.787 5.557,-0.019 5.577,-3.988 5.789,-4.591 l 24.532,0 c 3.82,-0.071 3.744,-6.797 0,-6.713 -4.918,0 -13.601,0.049 -18.563,0 l 4.284,0 c 1.988,-0.721 3.436,-5.227 -0.825,-6.891 -0.803,-0.012 -2.638,0 -3.49,0 l 3.632,0 c 1.598,-1.162 2.367,-6.244 -2.071,-6.961 -0.199,-0.008 -4.025,0.022 -4.423,0 0.228,-0.01 2.419,0.037 2.975,-0.244 3.111,-1.688 1.595,-6.623 -1.061,-6.846 l -14.475,0 c -4.018,0 -7.401,3.828 -11.182,5.641 -0.938,0.084 -2.328,0.142 -2.328,0.142 L 0,0 Z"
         style="fill:#ffffff;fill-opacity:1;fill-rule:nonzero;stroke:none"
         id="path4579"
         inkscape:connector-curvature="0" />
    </g>
    <text
       style="font-variant:normal;font-weight:bold;font-stretch:normal;font-size:48px;font-family:'Open Sans';-inkscape-font-specification:'Open Sans-Bold';writing-mode:lr-tb;display:inline;fill:#ffffff;fill-opacity:1;fill-rule:nonzero;stroke:none"
       id="text4585"
       x="-624.25525"
       y="49.444229">
      <tspan
         x="-624.25525 -603.95123 -592.14325 -566.36725 -543.61523 -510.68726 -484.91125 -460.76724 -442.19125"
         y="49.444229"
         sodipodi:role="line"
         id="tspan4587">LingQuest</tspan>
    </text>
  </g>
  <g
     inkscape:groupmode="layer"
     id="layer16"
     inkscape:label="EditButton"
     transform="translate(638.97255,-3.37053)">
    <g
       style="display:inline;fill:#c1e3f1"
       id="g4365"
       transform="matrix(1,0,0,-1,-414.65125,238.65573)">
      <path
         d="m 0,0 c 0,-3.117 -2.551,-5.668 -5.669,-5.668 l -106.299,0 c -3.118,0 -5.67,2.551 -5.67,5.668 l 0,61.42 c 0,3.117 2.552,5.669 5.67,5.669 l 106.299,0 C -2.551,67.089 0,64.537 0,61.42 L 0,0 Z"
         style="fill:#c1e3f1;fill-opacity:1;fill-rule:nonzero;stroke:none"
         id="path4367"
         inkscape:connector-curvature="0" />
    </g>
    <g
       style="display:inline"
       id="g4533"
       transform="matrix(1,0,0,-1,-462.19965,177.61663)">
      <path
         d="m 0,0 -13.238,-12.938 0.318,-1.962 2.159,-0.516 0.532,-2.334 1.203,-0.904 L 4.964,-5.039 0,0 Z"
         style="fill:#0073ab;fill-opacity:1;fill-rule:nonzero;stroke:none"
         id="path4535"
         inkscape:connector-curvature="0" />
    </g>
    <g
       style="display:inline"
       id="g4537"
       transform="matrix(1,0,0,-1,-472.16155,196.82563)">
      <path
         d="M 0,0 -1.542,1.01 -2.234,2.66 -3.882,3.404 -4.361,4.893 -5.655,1.924 -7.552,-2.234 -4.26,-1.271 -4.254,-1.277 0,0 Z"
         style="fill:#0073ab;fill-opacity:1;fill-rule:nonzero;stroke:none"
         id="path4539"
         inkscape:connector-curvature="0" />
    </g>
    <g
       style="display:inline"
       id="g4581"
       transform="matrix(1,0,0,-1,-471.42905,182.43103)">
      <path
         d="M 0,0 -13.989,0 -14.14,-22.865 9.627,-23.016 9.477,-8.123"
         style="fill:none;stroke:#0073ab;stroke-width:4;stroke-linecap:butt;stroke-linejoin:round;stroke-miterlimit:4;stroke-dasharray:none;stroke-opacity:1"
         id="path4583"
         inkscape:connector-curvature="0" />
    </g>
    <text
       xml:space="preserve"
       style="font-style:normal;font-variant:normal;font-weight:normal;font-stretch:normal;font-size:15.60377884px;line-height:110.00000238%;font-family:'Open Sans';-inkscape-font-specification:'Open Sans';text-align:start;writing-mode:lr-tb;text-anchor:start;opacity:1;fill:#000000;fill-opacity:1;fill-rule:nonzero;stroke:none;stroke-width:1.79999995;stroke-linecap:round;stroke-linejoin:round;stroke-miterlimit:4;stroke-dasharray:none;stroke-dashoffset:0;stroke-opacity:1"
       x="-522.51245"
       y="232.03563"
       id="text5883"
       sodipodi:linespacing="110%"><tspan
         sodipodi:role="line"
         id="tspan5885"
         x="-522.51245"
         y="232.03563">EDIT DETAILS</tspan></text>
  </g>
  <g
     inkscape:groupmode="layer"
     id="layer13"
     inkscape:label="NewPlayerButton"
     style="display:inline"
     transform="translate(638.97255,-3.37053)">
    <g
       style="display:inline;fill:#c1e3f1;fill-opacity:1"
       id="g4369"
       transform="matrix(1,0,0,-1,-171.14055,238.65573)">
      <path
         d="m 0,0 c 0,-3.117 -2.551,-5.668 -5.669,-5.668 l -106.3,0 c -3.118,0 -5.669,2.551 -5.669,5.668 l 0,61.42 c 0,3.117 2.551,5.669 5.669,5.669 l 106.3,0 C -2.551,67.089 0,64.537 0,61.42 L 0,0 Z"
         style="fill:#c1e3f1;fill-opacity:1;fill-rule:nonzero;stroke:none"
         id="path4371"
         inkscape:connector-curvature="0" />
    </g>
    <g
       style="display:inline"
       id="g4541"
       transform="matrix(1,0,0,-1,-215.04385,205.65963)">
      <path
         d="m 0,0 -11.476,4.209 -3.529,-11.363 -3.864,11.593 -11.085,-4.326 6.656,10.252 -10.293,5.969 12.164,1.187 -1.751,11.77 8.513,-8.77 8.111,8.708 L -8.104,17.104 3.761,16.193 -6.685,9.844 0,0 Z"
         style="fill:#ef2b2d;fill-opacity:1;fill-rule:nonzero;stroke:none"
         id="path4543"
         inkscape:connector-curvature="0" />
    </g>
    <g
       style="display:inline"
       id="g4545"
       transform="matrix(1,0,0,-1,-235.52625,198.12053)">
      <path
         d="M 0,0 C 3.867,-1.676 8.555,-1.824 12.156,-0.09 12.156,6.801 0,6.799 0,0"
         style="fill:#ffffff;fill-opacity:1;fill-rule:nonzero;stroke:none"
         id="path4547"
         inkscape:connector-curvature="0" />
    </g>
    <g
       style="display:inline"
       id="g4549"
       transform="matrix(1,0,0,-1,-229.44815,186.48963)">
      <path
         d="m 0,0 c 2.098,0 3.797,-1.701 3.797,-3.799 0,-2.096 -1.699,-3.797 -3.797,-3.797 -2.099,0 -3.797,1.701 -3.797,3.797 C -3.797,-1.701 -2.099,0 0,0"
         style="fill:#ffffff;fill-opacity:1;fill-rule:nonzero;stroke:none"
         id="path4551"
         inkscape:connector-curvature="0" />
    </g>
    <text
       xml:space="preserve"
       style="font-style:normal;font-variant:normal;font-weight:normal;font-stretch:normal;font-size:15.60377884px;line-height:110.00000238%;font-family:'Open Sans';-inkscape-font-specification:'Open Sans';text-align:start;writing-mode:lr-tb;text-anchor:start;display:inline;opacity:1;fill:#000000;fill-opacity:1;fill-rule:nonzero;stroke:none;stroke-width:1.79999995;stroke-linecap:round;stroke-linejoin:round;stroke-miterlimit:4;stroke-dasharray:none;stroke-dashoffset:0;stroke-opacity:1"
       x="-276.24942"
       y="232.05467"
       id="text5891"
       sodipodi:linespacing="110%"><tspan
         sodipodi:role="line"
         id="tspan5893"
         x="-276.24942"
         y="232.05467">NEW PLAYER</tspan></text>
  </g>
</svg>
