<?xml version="1.0" encoding="UTF-8" standalone="no"?>
<!-- Created with Inkscape (http://www.inkscape.org/) -->

<svg
   xmlns:dc="http://purl.org/dc/elements/1.1/"
   xmlns:cc="http://creativecommons.org/ns#"
   xmlns:rdf="http://www.w3.org/1999/02/22-rdf-syntax-ns#"
   xmlns:svg="http://www.w3.org/2000/svg"
   xmlns="http://www.w3.org/2000/svg"
   xmlns:xlink="http://www.w3.org/1999/xlink"
   xmlns:sodipodi="http://sodipodi.sourceforge.net/DTD/sodipodi-0.dtd"
   xmlns:inkscape="http://www.inkscape.org/namespaces/inkscape"
   width="568"
   height="320"
   id="svg2"
   version="1.1"
   inkscape:version="0.48.2 r9819"
   sodipodi:docname="InfoScreen.svg"
   inkscape:export-filename="/Users/pplsuser/Documents/MPI/LanguageMemory/AppDevelopment/Assets/Images/GuessRound/Drag2.png"
   inkscape:export-xdpi="90.040451"
   inkscape:export-ydpi="90.040451">
  <defs
     id="defs4">
    <linearGradient
       id="linearGradient32030">
      <stop
         id="stop32032"
         offset="0"
         style="stop-color:#fff4f4;stop-opacity:1;" />
      <stop
         style="stop-color:#c80000;stop-opacity:1;"
         offset="1"
         id="stop32034" />
    </linearGradient>
    <linearGradient
       id="linearGradient32016">
      <stop
         id="stop32018"
         offset="0"
         style="stop-color:#f4fdff;stop-opacity:1;" />
      <stop
         style="stop-color:#009ec8;stop-opacity:1;"
         offset="1"
         id="stop32020" />
    </linearGradient>
    <linearGradient
       inkscape:collect="always"
       id="linearGradient4004">
      <stop
         style="stop-color:#c1e3f1;stop-opacity:1;"
         offset="0"
         id="stop4006" />
      <stop
         style="stop-color:#c1e3f1;stop-opacity:0;"
         offset="1"
         id="stop4008" />
    </linearGradient>
    <linearGradient
       id="linearGradient4134">
      <stop
         style="stop-color:#f4fdff;stop-opacity:1;"
         offset="0"
         id="stop4136" />
      <stop
         id="stop32014"
         offset="1"
         style="stop-color:#009ec8;stop-opacity:1;" />
    </linearGradient>
    <linearGradient
       id="linearGradient4227">
      <stop
         id="stop4229"
         offset="0"
         style="stop-color:#ffffff;stop-opacity:1;" />
      <stop
         id="stop4231"
         offset="1"
         style="stop-color:#ffffff;stop-opacity:0;" />
    </linearGradient>
    <linearGradient
       id="linearGradient4235">
      <stop
         style="stop-color:#ffffff;stop-opacity:1;"
         offset="0"
         id="stop4237" />
      <stop
         style="stop-color:#ffffff;stop-opacity:0;"
         offset="1"
         id="stop4239" />
    </linearGradient>
    <linearGradient
       id="linearGradient4241">
      <stop
         id="stop4243"
         offset="0"
         style="stop-color:#ffffff;stop-opacity:1;" />
      <stop
         id="stop4245"
         offset="1"
         style="stop-color:#8fcee6;stop-opacity:1;" />
    </linearGradient>
    <linearGradient
       id="linearGradient4267">
      <stop
         style="stop-color:#ffffff;stop-opacity:1;"
         offset="0"
         id="stop4269" />
      <stop
         style="stop-color:#f6aa8b;stop-opacity:1;"
         offset="1"
         id="stop4271" />
    </linearGradient>
    <linearGradient
       id="linearGradient4273">
      <stop
         style="stop-color:#ffffff;stop-opacity:1;"
         offset="0"
         id="stop4275" />
      <stop
         style="stop-color:#00a47a;stop-opacity:1;"
         offset="1"
         id="stop4277" />
    </linearGradient>
    <linearGradient
       inkscape:collect="always"
       xlink:href="#linearGradient4134-1"
       id="linearGradient4466"
       x1="305.88995"
       y1="2.3651478"
       x2="305.88995"
       y2="317.5126"
       gradientUnits="userSpaceOnUse"
       gradientTransform="matrix(1.007005,0,0,0.83127249,-1.9893522,-1.6422535)" />
    <linearGradient
       inkscape:collect="always"
       xlink:href="#linearGradient4004"
       id="linearGradient4021"
       gradientUnits="userSpaceOnUse"
       x1="284.65509"
       y1="143.19354"
       x2="284.65509"
       y2="188.97968" />
    <linearGradient
       inkscape:collect="always"
       xlink:href="#linearGradient4004"
       id="linearGradient4034"
       gradientUnits="userSpaceOnUse"
       x1="284.65509"
       y1="143.19354"
       x2="284.65509"
       y2="188.97968" />
    <linearGradient
       inkscape:collect="always"
       xlink:href="#linearGradient4004"
       id="linearGradient4048"
       gradientUnits="userSpaceOnUse"
       x1="284.65509"
       y1="143.19354"
       x2="284.65509"
       y2="188.97968" />
    <linearGradient
       y2="368.75067"
       x2="-1198.9047"
       y1="-120.91417"
       x1="-1200.9249"
       gradientTransform="translate(28.571429,1160)"
       gradientUnits="userSpaceOnUse"
       id="linearGradient3101"
       xlink:href="#linearGradient4241-9"
       inkscape:collect="always" />
    <linearGradient
       y2="-122.56577"
       x2="-1118.692"
       y1="-566.07471"
       x1="-1120.7123"
       gradientTransform="translate(28.571429,1160)"
       gradientUnits="userSpaceOnUse"
       id="linearGradient3099"
       xlink:href="#linearGradient4241-9"
       inkscape:collect="always" />
    <linearGradient
       y2="238.73714"
       x2="-791.54694"
       y1="-749.87787"
       x1="-791.54694"
       gradientTransform="matrix(1.0479533,0,0,1.0298851,-337.56044,1257.0032)"
       gradientUnits="userSpaceOnUse"
       id="linearGradient3097"
       xlink:href="#linearGradient4134-1"
       inkscape:collect="always" />
    <linearGradient
       gradientUnits="userSpaceOnUse"
       y2="786.49591"
       x2="296.11093"
       y1="786.49591"
       x1="256.89218"
       id="linearGradient3872"
       xlink:href="#linearGradient4241-9"
       inkscape:collect="always" />
    <linearGradient
       gradientUnits="userSpaceOnUse"
       y2="786.49591"
       x2="296.11093"
       y1="786.49591"
       x1="256.89218"
       id="linearGradient3870"
       xlink:href="#linearGradient4241-9"
       inkscape:collect="always" />
    <linearGradient
       id="linearGradient4134-1">
      <stop
         style="stop-color:#009ec8;stop-opacity:1;"
         offset="0"
         id="stop4136-1" />
      <stop
         style="stop-color:#8ecfe6;stop-opacity:1;"
         offset="1"
         id="stop4138-3" />
    </linearGradient>
    <linearGradient
       id="linearGradient4227-5">
      <stop
         id="stop4229-5"
         offset="0"
         style="stop-color:#ffffff;stop-opacity:1;" />
      <stop
         id="stop4231-6"
         offset="1"
         style="stop-color:#ffffff;stop-opacity:0;" />
    </linearGradient>
    <linearGradient
       id="linearGradient4235-6">
      <stop
         style="stop-color:#ffffff;stop-opacity:1;"
         offset="0"
         id="stop4237-9" />
      <stop
         style="stop-color:#ffffff;stop-opacity:0;"
         offset="1"
         id="stop4239-9" />
    </linearGradient>
    <linearGradient
       id="linearGradient4241-9">
      <stop
         id="stop4243-0"
         offset="0"
         style="stop-color:#ffffff;stop-opacity:1;" />
      <stop
         id="stop4245-8"
         offset="1"
         style="stop-color:#8ecfe6;stop-opacity:1;" />
    </linearGradient>
    <linearGradient
       id="linearGradient4267-6">
      <stop
         style="stop-color:#ffffff;stop-opacity:1;"
         offset="0"
         id="stop4269-4" />
      <stop
         style="stop-color:#f6aa8b;stop-opacity:1;"
         offset="1"
         id="stop4271-5" />
    </linearGradient>
    <linearGradient
       id="linearGradient4273-1">
      <stop
         style="stop-color:#ffffff;stop-opacity:1;"
         offset="0"
         id="stop4275-9" />
      <stop
         style="stop-color:#00a47a;stop-opacity:1;"
         offset="1"
         id="stop4277-5" />
    </linearGradient>
    <linearGradient
       inkscape:collect="always"
       xlink:href="#linearGradient4241-9"
       id="linearGradient5718"
       gradientUnits="userSpaceOnUse"
       x1="256.89218"
       y1="786.49591"
       x2="296.11093"
       y2="786.49591" />
    <linearGradient
       inkscape:collect="always"
       xlink:href="#linearGradient4241-9"
       id="linearGradient5722"
       gradientUnits="userSpaceOnUse"
       x1="256.89218"
       y1="786.49591"
       x2="296.11093"
       y2="786.49591" />
    <radialGradient
       inkscape:collect="always"
       xlink:href="#linearGradient32030"
       id="radialGradient32753"
       gradientUnits="userSpaceOnUse"
       gradientTransform="matrix(0.23807506,0,0,0.28258562,66.212458,-65.497033)"
       cx="932.09656"
       cy="1263.8051"
       fx="932.09656"
       fy="1263.8051"
       r="93.33477" />
    <radialGradient
       inkscape:collect="always"
       xlink:href="#linearGradient32016"
       id="radialGradient32757"
       gradientUnits="userSpaceOnUse"
       gradientTransform="matrix(0.22972993,-0.00230658,0.00261773,0.26072081,-16.396507,-34.93883)"
       cx="191.75664"
       cy="1254.3772"
       fx="191.75664"
       fy="1254.3772"
       r="94.855522" />
  </defs>
  <sodipodi:namedview
     id="base"
     pagecolor="#ffffff"
     bordercolor="#666666"
     borderopacity="1.0"
     inkscape:pageopacity="0.0"
     inkscape:pageshadow="2"
     inkscape:zoom="1.2570423"
     inkscape:cx="386.37162"
     inkscape:cy="67.410113"
     inkscape:document-units="px"
     inkscape:current-layer="layer11"
     showgrid="false"
     inkscape:window-width="1906"
     inkscape:window-height="1135"
     inkscape:window-x="0"
     inkscape:window-y="0"
     inkscape:window-maximized="0" />
  <metadata
     id="metadata7">
    <rdf:RDF>
      <cc:Work
         rdf:about="">
        <dc:format>image/svg+xml</dc:format>
        <dc:type
           rdf:resource="http://purl.org/dc/dcmitype/StillImage" />
        <dc:title></dc:title>
      </cc:Work>
    </rdf:RDF>
  </metadata>
  <g
     inkscape:groupmode="layer"
     id="layer15"
     inkscape:label="Background"
     style="display:inline">
    <rect
       style="fill:url(#linearGradient4466);fill-opacity:1;fill-rule:nonzero;stroke:none;display:inline"
       id="rect4458"
       width="568"
       height="262.72269"
       x="0"
       y="0"
       ry="0" />
    <flowRoot
       transform="matrix(0.91190939,0,0,0.91190939,1342.7945,-156.60038)"
       style="font-size:64px;font-style:normal;font-variant:normal;font-weight:bold;font-stretch:normal;text-align:start;line-height:110.00000238%;writing-mode:lr-tb;text-anchor:start;fill:#ffffff;fill-opacity:1;fill-rule:nonzero;stroke:none;display:inline;font-family:Calibri;-inkscape-font-specification:Calibri Bold"
       id="flowRoot4195"
       xml:space="preserve"><flowRegion
         id="flowRegion4197"><rect
           y="178.28572"
           x="-1451.4286"
           height="685.71429"
           width="605.71429"
           id="rect4199"
           style="font-style:normal;font-variant:normal;font-weight:bold;font-stretch:normal;fill:#ffffff;font-family:Calibri;-inkscape-font-specification:Calibri Bold" /></flowRegion><flowPara
         id="flowPara4201">LingQuest</flowPara></flowRoot>    <path
       inkscape:connector-curvature="0"
       id="path32121"
       d="m 189.20707,313.33748 c -2.10179,-0.4841 -4.04137,-1.96433 -4.98073,-3.8012 -0.90656,-1.77271 -1.2763,-5.46401 -0.75989,-7.58614 0.8028,-3.29901 3.35958,-5.6964 6.49492,-6.0901 2.5523,-0.32045 5.73144,0.33278 5.89434,1.21118 0.0863,0.46539 -0.53286,2.53336 -0.83312,2.78252 -0.15115,0.12545 -0.53754,0.0936 -1.16127,-0.0956 -1.92995,-0.58552 -3.67986,-0.2925 -4.69182,0.78555 -2.09167,2.22834 -1.50331,7.42045 1.00029,8.82757 0.68814,0.38677 0.95332,0.42591 2.24538,0.33166 0.80582,-0.0588 1.78035,-0.16206 2.16561,-0.22948 0.63416,-0.11099 0.72636,-0.0711 0.97355,0.4211 0.1502,0.299 0.37611,0.96509 0.50207,1.48016 0.19204,0.7853 0.18397,0.98156 -0.05,1.21557 -0.7392,0.7392 -4.86531,1.19261 -6.79928,0.74717 z m 40.25567,0.0397 c -2.76041,-0.5411 -5.00329,-2.84393 -5.74194,-5.89543 -0.32618,-1.34748 -0.32613,-4.18465 1.9e-4,-5.53158 0.81488,-3.36422 3.10683,-5.60769 6.20995,-6.07863 3.28091,-0.49791 6.16633,0.65971 7.76229,3.11419 1.20461,1.85258 1.54137,3.2846 1.44893,6.16114 -0.0678,2.10811 -0.1474,2.59724 -0.60052,3.68995 -1.46457,3.53192 -5.05743,5.32869 -9.0789,4.54036 z m 3.02336,-3.71616 c 1.55906,-0.62381 2.2006,-2.33628 2.08966,-5.57782 -0.0653,-1.90874 -0.11647,-2.1471 -0.64121,-2.98943 -1.24318,-1.99567 -3.58712,-2.19679 -4.93942,-0.42387 -0.98767,1.29489 -1.34181,4.1506 -0.7815,6.3018 0.34307,1.31722 0.91349,2.14119 1.81268,2.61849 0.82791,0.43944 1.4908,0.45853 2.45979,0.0708 z m -140.463165,3.61233 c -0.850462,-0.22619 -0.858349,-0.30528 -0.858349,-8.60639 0,-5.07535 0.07047,-8.02363 0.197455,-8.26092 0.174523,-0.32609 0.413774,-0.36894 2.060034,-0.36894 1.194352,0 1.944705,0.0821 2.091478,0.22888 0.271165,0.2712 0.330232,16.29215 0.06163,16.7159 -0.169176,0.26688 -2.82528,0.48484 -3.552244,0.29147 z m 8.678855,-0.0378 -0.47686,-0.14394 -0.0497,-8.31146 c -0.0415,-6.9502 -0.006,-8.34794 0.21836,-8.53392 0.30944,-0.25684 3.00952,-0.31748 3.43877,-0.0773 0.15753,0.0882 1.67209,2.21898 3.36569,4.73515 3.40017,5.05164 3.35542,4.99155 3.56229,4.78471 0.0804,-0.0804 0.18915,-2.2635 0.24161,-4.85126 l 0.0954,-4.70505 1.81206,0 1.81207,0 0.0497,8.44567 c 0.057,9.68982 0.27915,8.7213 -2.00051,8.7213 -1.70845,0 -1.56374,0.13647 -4.5504,-4.29175 -2.82259,-4.18493 -3.66672,-5.34081 -3.90034,-5.34081 -0.1141,0 -0.18472,1.78237 -0.18472,4.66196 0,3.27513 -0.0645,4.70182 -0.21675,4.79593 -0.31899,0.19715 -2.66305,0.27786 -3.21665,0.11073 z m 49.97496,0.003 -0.6676,-0.12972 -0.0497,-8.32008 c -0.0414,-6.93096 -0.005,-8.35694 0.21656,-8.54099 0.41903,-0.34776 4.99597,-0.60595 6.90215,-0.38935 2.64672,0.30074 4.60091,1.44157 5.45187,3.18278 0.35423,0.72482 0.44126,1.2118 0.43471,2.43224 -0.01,1.83868 -0.30452,2.60073 -1.49955,3.87829 -0.47837,0.51144 -0.86977,1.04299 -0.86977,1.18121 0,0.13825 0.77935,1.5732 1.73188,3.1888 0.95254,1.61563 1.68483,3.0601 1.62731,3.20995 -0.17235,0.44917 -4.18862,0.45177 -4.65485,0.003 -0.32368,-0.31152 -3.82333,-6.70288 -3.8947,-7.1128 -0.0329,-0.1891 0.21371,-0.49032 0.6125,-0.74813 1.83797,-1.18825 2.47781,-2.00921 2.47897,-3.18068 9.5e-4,-1.04863 -0.44163,-1.75338 -1.38952,-2.21224 -0.91249,-0.4417 -2.2203,-0.52908 -2.57725,-0.17211 -0.16924,0.16925 -0.22889,1.95579 -0.22889,6.85552 0,4.20512 -0.0696,6.66965 -0.19045,6.74433 -0.29712,0.18363 -2.6913,0.27424 -3.43369,0.12994 z m 15.26053,-0.014 c -0.26172,-0.0729 -0.49916,-0.25741 -0.52764,-0.41016 -0.0285,-0.15277 0.89901,-3.06738 2.06109,-6.47692 1.16209,-3.40957 2.37464,-7.01465 2.69458,-8.01128 0.31994,-0.99663 0.66857,-1.91936 0.77474,-2.05049 0.13557,-0.16746 0.89445,-0.23843 2.54958,-0.23843 2.23715,0 2.37015,0.0217 2.62491,0.42917 0.14761,0.23606 1.44576,4.02131 2.88478,8.41167 1.97276,6.01875 2.56241,8.03651 2.39691,8.20197 -0.29069,0.29072 -4.10866,0.29784 -4.39828,0.008 -0.11622,-0.11621 -0.3407,-0.71706 -0.49886,-1.3352 -0.15815,-0.61814 -0.4271,-1.2312 -0.59766,-1.36233 -0.34943,-0.26867 -4.55435,-0.33757 -4.95802,-0.0813 -0.13108,0.0832 -0.4315,0.74715 -0.6676,1.47535 -0.38322,1.18195 -0.49067,1.33694 -1.00151,1.4445 -0.76949,0.16201 -2.74768,0.1592 -3.33702,-0.005 z m 9.03787,-6.66151 c 0.0904,-0.14622 -0.79636,-3.96188 -1.23818,-5.32788 -0.38416,-1.18771 -0.5012,-0.96439 -1.50349,2.86873 -0.32341,1.23685 -0.53709,2.33126 -0.47482,2.43201 0.1374,0.22232 3.08051,0.24717 3.21649,0.0271 z m 41.03145,6.7035 c -0.20979,-0.0585 -0.44453,-0.20369 -0.52162,-0.32271 -0.0771,-0.11899 -0.14146,-3.87529 -0.14303,-8.34731 -0.002,-6.7326 0.0429,-8.169 0.26364,-8.3522 0.17332,-0.14384 0.92404,-0.20205 2.14587,-0.16639 l 1.87929,0.0548 0.0497,8.38119 c 0.0312,5.25248 -0.0198,8.45052 -0.13604,8.56692 -0.2076,0.20757 -2.94394,0.3512 -3.53782,0.18569 z m 27.4195,-0.0564 -0.42918,-0.18424 0,-8.38765 c 0,-5.90438 0.0622,-8.42609 0.21025,-8.51756 0.11561,-0.0715 0.90842,-0.12687 1.76175,-0.12316 1.39031,0.006 1.58951,0.0531 1.91682,0.45249 0.20091,0.24512 1.70419,2.41517 3.34064,4.8223 1.63644,2.40716 3.08265,4.40996 3.21378,4.4507 0.1862,0.0579 0.23843,-0.92921 0.23843,-4.50407 0,-2.51798 0.0521,-4.71391 0.1158,-4.87985 0.0936,-0.24396 0.44163,-0.30174 1.81675,-0.30174 1.66836,0 1.70476,0.01 1.89491,0.50994 0.30712,0.80776 0.15275,16.1871 -0.16567,16.50462 -0.16266,0.16222 -0.78001,0.24779 -1.78766,0.24779 -1.8254,0 -1.33153,0.48658 -5.02139,-4.94732 -3.21927,-4.74088 -3.2401,-4.76829 -3.49996,-4.6077 -0.1557,0.0962 -0.21955,1.46101 -0.21955,4.69103 0,3.19551 -0.0647,4.59534 -0.21675,4.68931 -0.35668,0.22041 -2.70684,0.28355 -3.16897,0.0851 z M 122.85408,312.9495 c -0.1432,-0.17251 -0.22774,-2.31295 -0.26179,-6.62837 l -0.0503,-6.3735 -2.19356,-0.0954 c -1.20645,-0.0525 -2.30085,-0.16482 -2.43198,-0.24969 -0.15763,-0.10202 -0.23843,-0.66537 -0.23843,-1.66231 0,-1.29568 0.0519,-1.53578 0.36895,-1.70543 0.46052,-0.24645 13.34177,-0.26645 13.72903,-0.0212 0.36831,0.23315 0.39776,2.89392 0.0368,3.32882 -0.20957,0.25252 -0.65537,0.30992 -2.40701,0.30992 -1.78437,0 -2.16947,0.0513 -2.26557,0.30171 -0.0637,0.16594 -0.11578,3.11805 -0.11578,6.56026 0,5.53103 -0.0351,6.27201 -0.30172,6.37434 -0.61215,0.23488 -3.64892,0.12575 -3.86868,-0.13906 z m 12.2198,0.0259 c -0.32915,-0.32914 -0.32915,-16.38002 0,-16.70918 0.167,-0.16699 1.6564,-0.22889 5.50823,-0.22889 4.67905,0 5.30909,0.0359 5.54111,0.31559 0.33536,0.40423 0.33821,2.83131 0.004,3.16669 -0.16223,0.16265 -1.26836,0.26721 -3.51805,0.33261 l -3.28142,0.0954 -0.0585,1.13914 c -0.0802,1.56237 0.0361,1.62665 2.94482,1.62665 1.66285,0 2.37945,0.0687 2.48521,0.2384 0.18752,0.30084 0.17477,2.95742 -0.0151,3.14836 -0.0777,0.0781 -1.31467,0.18491 -2.74885,0.23738 l -2.60761,0.0954 0,1.43057 0,1.43057 3.37651,0.0954 c 2.40835,0.068 3.44751,0.16651 3.62414,0.34336 0.34192,0.3424 0.33117,2.74003 -0.0142,3.15611 -0.23218,0.27976 -0.86966,0.31543 -5.63648,0.31543 -3.926,0 -5.43641,-0.0617 -5.6036,-0.22891 z m 68.2742,-0.0259 c -0.14318,-0.17251 -0.22773,-2.31295 -0.26177,-6.62837 l -0.0503,-6.3735 -2.23256,-0.0954 c -1.28757,-0.055 -2.3241,-0.18729 -2.44881,-0.31247 -0.29186,-0.29305 -0.28015,-2.86892 0.0147,-3.22416 0.19438,-0.23421 1.29525,-0.27826 6.95562,-0.27826 7.78179,0 7.25459,-0.13987 7.23777,1.92024 -0.0151,1.84911 -0.0791,1.89465 -2.66286,1.89465 -1.78437,0 -2.16948,0.0513 -2.26557,0.30172 -0.0637,0.16596 -0.11579,3.11804 -0.11579,6.56025 0,5.53103 -0.0351,6.27202 -0.30171,6.37434 -0.61216,0.23488 -3.64892,0.12575 -3.86869,-0.13906 z"
       style="fill:#ef2b2d;display:inline" />
    <path
       style="fill:url(#radialGradient32757);fill-opacity:1;display:inline"
       d="m 12.937876,317.78465 c 0,-0.12459 0.36833,-1.06427 0.818511,-2.08818 0.450181,-1.02389 1.116796,-2.82357 1.481368,-3.99928 0.573363,-1.84906 0.65947,-2.50729 0.637781,-4.87552 -0.04367,-4.76845 -1.159844,-9.08349 -3.344735,-12.9304 -2.6068888,-4.58995 -3.2975659,-7.26113 -3.058679,-11.82941 0.1778587,-3.40121 0.62015,-5.33164 1.686493,-7.3609 2.593968,-4.93634 8.135139,-8.23592 15.468577,-9.21105 7.311639,-0.9722 15.477119,2.10092 19.254301,7.24646 1.793077,2.44265 4.434167,8.90234 4.434167,10.84527 0,0.48553 -0.262794,1.37643 -0.583986,1.97981 -0.705738,1.32572 -0.84845,1.00199 2.409388,5.46556 1.352972,1.85372 2.456542,3.56786 2.452378,3.8092 -0.01221,0.70789 -0.617969,1.31839 -2.077024,2.0933 -1.611525,0.85588 -1.739486,1.24037 -0.991475,2.97918 l 0.523532,1.21696 -0.527198,0.56119 c -0.337872,0.35964 -0.435271,0.61798 -0.27122,0.71937 0.400513,0.24753 0.301605,0.88412 -0.224353,1.44397 l -0.480333,0.51129 0.507269,1.14676 c 0.668896,1.51216 0.527053,2.98566 -0.378382,3.93072 -0.544614,0.56845 -1.223363,0.81655 -4.250383,1.55356 -1.981249,0.48239 -3.988576,1.07417 -4.460726,1.31503 -1.205803,0.61516 -2.292437,1.93903 -3.254687,3.96526 l -0.825568,1.7384 -12.472507,0 c -7.733049,0 -12.472509,-0.0861 -12.472509,-0.22655 z m 15.670652,-21.88324 c 0.173145,-0.10978 0.399214,-0.57384 0.502372,-1.03123 0.2554,-1.13242 -0.170631,-1.36843 -1.869165,-1.03548 -0.709533,0.13906 -1.321817,0.35935 -1.36063,0.48948 -0.06144,0.20601 1.97418,1.78495 2.293574,1.77902 0.06547,0 0.260702,-0.092 0.433849,-0.20179 z m -2.434462,-0.61348 c -0.652685,-0.53364 -1.332437,-0.58407 -1.332437,-0.0988 0,0.26812 0.895321,0.6485 1.547488,0.65742 0.413883,0.006 0.38576,-0.0674 -0.215051,-0.55862 z m 4.134016,-0.17684 c 0.582689,-0.62545 0.608986,-0.87492 0.112307,-1.06553 -0.459359,-0.17627 -0.709211,0.0796 -0.910094,0.93188 -0.18677,0.79241 0.133993,0.84616 0.797787,0.13365 z m -6.051851,-0.41542 c -0.08631,-0.13965 -0.270856,-0.2539 -0.410104,-0.2539 -0.157865,0 -0.139805,0.13661 0.04798,0.36287 0.32653,0.39344 0.61836,0.30564 0.362127,-0.10897 z m -0.604978,-1.05912 c 0,-0.42468 -2.353138,-2.28976 -2.88895,-2.28976 -0.674519,0 -0.53066,0.3994 0.240715,0.6683 0.376647,0.1313 1.034824,0.67428 1.462617,1.20659 0.739028,0.91964 1.185618,1.07589 1.185618,0.41487 z m 7.618402,-0.28017 c 0,-0.18869 -0.09567,-0.34306 -0.212603,-0.34306 -0.262778,0 -0.518761,0.61773 -0.332974,0.8035 0.208392,0.20841 0.545577,-0.0762 0.545577,-0.46044 z m -3.154494,-0.13365 c 0.743244,-0.27422 0.673485,-0.57891 -0.335777,-1.46659 -0.745044,-0.65528 -2.22353,-1.49549 -2.22353,-1.26361 0,0.0413 -0.107317,0.64092 -0.23848,1.33255 -0.308712,1.62784 -0.06918,1.95529 1.278096,1.74724 0.541212,-0.0836 1.225073,-0.24089 1.519691,-0.34959 z m -3.439835,-0.29112 c 0.06749,-0.17589 0.198433,-0.92583 0.290978,-1.66653 0.191781,-1.53496 0.292937,-1.47937 -1.942307,-1.06752 -0.868681,0.16008 -1.515419,0.40163 -1.515419,0.56604 0,0.29272 2.522396,2.48779 2.858779,2.48779 0.101891,0 0.240475,-0.14391 0.307969,-0.31978 z m 7.006492,-0.84412 c 0.07358,-0.21096 0.405961,-0.6782 0.738618,-1.03829 l 0.604828,-0.65471 -0.658271,-0.68708 c -0.969161,-1.01158 -1.453479,-0.76222 -1.813377,0.9337 -0.162962,0.76791 -0.235775,1.55392 -0.161803,1.74669 0.171566,0.4471 1.105128,0.22977 1.290005,-0.30031 z m -1.569298,-1.3037 c 0.329493,-1.37712 0.327913,-1.53696 -0.01733,-1.75256 -0.477731,-0.29836 -1.921035,-0.10323 -1.918932,0.25943 9.52e-4,0.14882 0.214424,0.59197 0.474581,0.98479 0.601339,0.908 0.595714,1.07134 -0.0369,1.07134 -0.497969,0 -0.500383,0.014 -0.08214,0.47615 0.788533,0.87131 1.186159,0.60993 1.580728,-1.03915 z m -10.032393,0.69809 c 0,-0.44739 -0.747541,-0.67171 -1.559465,-0.46792 l -0.647657,0.16256 0.567892,0.31476 c 0.762176,0.42249 1.63923,0.41744 1.63923,-0.01 z m -0.883272,-1.32563 c 0.132934,-0.50834 -1.79816,-2.48674 -2.617514,-2.68165 -0.467508,-0.11121 -0.542764,-0.005 -0.68883,0.96868 -0.153135,1.02115 -0.115257,1.13419 0.572492,1.70833 0.582951,0.48667 0.932923,0.59611 1.678879,0.52498 0.660851,-0.063 0.976037,-0.21848 1.054973,-0.52034 z m 4.889152,-0.60997 c 0.462777,-0.15106 -0.639127,-2.05088 -1.390961,-2.3982 -1.539729,-0.71132 -1.575742,-0.6944 -1.825845,0.85859 -0.211511,1.31337 -0.190684,1.45861 0.251267,1.75204 0.446188,0.29626 1.67711,0.20808 2.965539,-0.21243 z m 10.287811,-0.0193 c 0.938876,-0.62132 1.439343,-1.58831 1.032568,-1.99509 -0.293721,-0.29371 -3.196468,0.47437 -3.355111,0.88778 -0.103768,0.27041 0.986788,1.73683 1.291664,1.73683 0.04378,0 0.507676,-0.28328 1.030879,-0.62952 z M 20.415154,288.249 c 0.08706,-0.6563 0.215746,-1.34298 0.285964,-1.52597 0.07717,-0.2011 -0.0768,-0.39761 -0.38921,-0.49677 -0.770218,-0.24445 -2.618216,0.0969 -2.777943,0.51315 -0.147393,0.38411 1.951889,2.70287 2.447023,2.70287 0.15173,0 0.347104,-0.53698 0.434166,-1.19328 z m -4.855286,-0.25251 0.180761,-0.98848 -0.835687,0.1356 c -0.459627,0.0746 -0.890919,0.19087 -0.958426,0.25836 -0.06751,0.0675 0.170855,0.50767 0.529691,0.97813 0.358836,0.47044 0.708785,0.79901 0.777665,0.73013 0.06888,-0.0689 0.20658,-0.57004 0.305996,-1.11374 z m 14.087651,-0.0699 c 0.351568,-0.4412 0.358648,-0.55122 0.05692,-0.88462 -0.254614,-0.28133 -0.577001,-0.3413 -1.234764,-0.22964 -0.770023,0.1307 -0.881766,0.23002 -0.827833,0.73584 0.03429,0.32159 0.112288,0.72127 0.173328,0.88818 0.159692,0.43663 1.33983,0.1083 1.83235,-0.50976 z m 7.427978,-0.19449 c -0.182775,-0.29573 -0.494518,-0.23405 -0.908297,0.17973 -0.617227,0.61723 -0.422903,0.87199 0.32716,0.42891 0.385703,-0.22783 0.647214,-0.50172 0.581137,-0.60864 z m -1.879701,-1.34212 c 0.23464,-0.93487 -0.154887,-1.07903 -1.696994,-0.62799 -0.767735,0.22455 -1.529801,0.44474 -1.693478,0.48934 -0.362093,0.0986 -0.391969,0.85871 -0.0473,1.20337 0.175005,0.17501 0.707495,0.14089 1.770286,-0.1134 1.274168,-0.30485 1.54385,-0.45872 1.667487,-0.95132 z m 4.589035,0.0278 c 0.557655,0.10661 0.944734,-0.17222 0.56494,-0.40697 -0.240324,-0.14851 -2.66125,0.5132 -2.976554,0.8136 -0.112984,0.10764 -0.13672,0.30688 -0.05274,0.44275 0.09495,0.15363 0.487088,0.02 1.037001,-0.35307 0.532678,-0.36149 1.100254,-0.55883 1.427357,-0.49631 z m -24.22813,-0.29052 c 0,-0.44273 -1.356375,-2.3987 -1.663375,-2.3987 -0.365172,0 -0.77658,2.30142 -0.502841,2.8129 0.224269,0.41906 0.359529,0.44465 1.209364,0.22896 0.641389,-0.1628 0.956852,-0.37485 0.956852,-0.64316 z m 15.560974,0.57723 c 0.146214,-0.38104 -0.05429,-0.44572 -0.660444,-0.21312 -0.206368,0.0792 -0.315942,0.23988 -0.243496,0.35711 0.207523,0.33578 0.753191,0.24886 0.90394,-0.14399 z m 10.74632,-0.35711 c -0.08093,-0.13094 -0.295194,-0.23807 -0.47615,-0.23807 -0.180956,0 -0.395223,0.10713 -0.47615,0.23807 -0.08378,0.13556 0.121249,0.23808 0.47615,0.23808 0.354901,0 0.559931,-0.10252 0.47615,-0.23808 z m -1.845081,-1.13514 c 0.402085,-0.51927 0.393433,-0.55362 -0.369633,-1.46764 l -0.667227,-0.79924 -0.974448,0.64487 c -1.036301,0.68578 -1.407998,1.57789 -0.957795,2.29879 0.234118,0.37487 0.352979,0.37956 1.463164,0.0578 0.664589,-0.19263 1.342262,-0.5232 1.505939,-0.73456 z m 3.612208,0.78755 c 0.581841,-0.30088 1.124105,-1.24492 0.864312,-1.50473 -0.04815,-0.0481 -0.633134,0.10625 -1.29997,0.34309 -0.772661,0.27443 -1.212431,0.56867 -1.212431,0.81119 0,0.77892 0.580746,0.9024 1.648089,0.35045 z m -25.019492,-0.1292 c 0.25571,0 0.01559,-0.33055 -0.674178,-0.9269 l -1.071338,-0.92625 -0.174811,0.6293 c -0.137686,0.49565 -0.06184,0.71689 0.357112,1.04172 0.292559,0.22681 0.674605,0.36073 0.84899,0.29759 0.174386,-0.0632 0.495787,-0.1151 0.714225,-0.11546 z m 17.813522,-0.60481 c 0.07754,-0.20208 0.08335,-0.42501 0.01293,-0.49546 -0.209344,-0.20934 -1.146767,0.39069 -0.994718,0.63671 0.21816,0.353 0.825682,0.26557 0.9818,-0.14125 z m -20.068526,-0.83495 c 0.253265,-1.2663 -0.629787,-2.48453 -1.412478,-1.9486 -0.576958,0.39507 -0.523565,0.98816 0.174405,1.93724 0.800196,1.0881 1.02232,1.09015 1.238073,0.0114 z m -3.285181,-0.86935 c -0.23821,-0.62079 -0.408903,-0.18092 -0.215596,0.55554 0.132132,0.50339 0.203021,0.56967 0.269796,0.25227 0.04982,-0.23679 0.02543,-0.60033 -0.0542,-0.80781 z m 30.654107,0.65951 c 0.882132,-0.33538 0.923067,-1.04151 0.117059,-2.01935 -0.387127,-0.46965 -0.853778,-0.85391 -1.036998,-0.85391 -0.406825,0 -1.140894,2.37078 -0.915741,2.95752 0.161139,0.41991 0.557445,0.40172 1.83568,-0.0843 z m -2.107405,-1.41914 c 0.233599,-0.77151 0.351128,-1.52185 0.261178,-1.66738 -0.273082,-0.44187 -1.40066,-0.0224 -2.084226,0.77529 l -0.640445,0.74739 0.746667,0.77374 c 0.410665,0.42556 0.869389,0.77375 1.019383,0.77375 0.149994,0 0.463844,-0.63126 0.697443,-1.40279 z m 4.339071,-0.67585 c -0.06036,-0.23162 -0.113719,-0.0997 -0.118571,0.29307 -0.0049,0.39283 0.04453,0.58236 0.10975,0.42116 0.06521,-0.16118 0.06918,-0.48258 0.0088,-0.71423 z m -32.781267,0.055 c 0,-0.18096 -0.107134,-0.39523 -0.238075,-0.47615 -0.13556,-0.0838 -0.238075,0.12125 -0.238075,0.47615 0,0.3549 0.102515,0.55993 0.238075,0.47615 0.130941,-0.0809 0.238075,-0.29519 0.238075,-0.47615 z m 32.399347,-0.7157 c 0.16135,-0.72099 0.249224,-1.35501 0.195278,-1.40896 -0.197519,-0.19753 -2.359093,0.42744 -2.359093,0.68207 0,0.33299 1.394418,2.03778 1.666785,2.03778 0.112017,0 0.335681,-0.58991 0.49703,-1.31089 z m -30.256672,0.40137 c 0.260316,-0.11797 0.367074,-0.5974 0.393857,-1.76883 0.02021,-0.88385 -0.04033,-1.60701 -0.134526,-1.60701 -0.185258,0 -1.218,2.78467 -1.21404,3.27354 0.0026,0.32073 0.382772,0.36147 0.954709,0.1023 z m -0.896017,-1.71445 c 0.327711,-0.91943 0.510036,-1.72469 0.405166,-1.78952 -0.10487,-0.0648 -0.572999,0.0645 -1.040286,0.28731 -0.758535,0.36173 -0.849613,0.5042 -0.849613,1.32901 0,0.94525 0.336907,1.84486 0.690898,1.84486 0.108901,0 0.466125,-0.75224 0.793835,-1.67166 z m 27.005264,0.10573 c 0.07927,-0.20658 -0.03123,-0.55093 -0.245548,-0.76525 -0.360015,-0.36002 -0.389667,-0.36009 -0.389667,0 0,0.21375 -0.06503,0.55812 -0.14451,0.76522 -0.09553,0.24898 -0.01231,0.37659 0.245549,0.37659 0.214529,0 0.454909,-0.16901 0.534176,-0.37556 z m 3.382301,-0.48746 c 0.409192,-0.0819 0.743985,-0.27381 0.743985,-0.42659 0,-0.27661 -1.916147,-2.28152 -2.180534,-2.28152 -0.20134,0 -0.483107,2.35371 -0.314438,2.62661 0.164772,0.26662 0.700681,0.29155 1.750987,0.0815 z m -2.222097,-1.12943 c 0.284966,-1.51899 0.0951,-1.92719 -0.935678,-2.01164 l -0.925824,-0.0759 0.163415,1.02193 c 0.287014,1.7949 1.427058,2.51029 1.698087,1.06558 z m -27.624778,-1.34622 c 0.06911,-0.21774 -0.02505,-0.75432 -0.209242,-1.19238 l -0.334893,-0.79648 -0.474202,1.05677 c -0.260812,0.58122 -0.548392,1.29982 -0.63907,1.59689 l -0.164869,0.54015 0.848314,-0.40454 c 0.466572,-0.22248 0.904854,-0.58269 0.973962,-0.80041 z m 29.725333,-0.29198 c -0.236144,-0.45496 -0.4449,-0.64546 -0.506695,-0.46236 -0.0578,0.17125 0.08321,0.51943 0.313352,0.77374 0.598466,0.6613 0.65279,0.57381 0.193343,-0.31138 z m -26.791762,-1.13026 1.030753,-0.93216 -0.435566,-0.59806 c -0.239563,-0.32895 -0.514375,-0.60145 -0.610696,-0.60557 -0.158691,-0.007 -1.610435,2.66306 -1.610435,2.96168 0,0.36258 0.711252,0.002 1.625944,-0.82589 z m -1.375708,-0.73891 c 0.403283,-0.79888 0.683043,-1.50273 0.621686,-1.56411 -0.187746,-0.18774 -2.076684,0.87253 -2.220045,1.24611 -0.155323,0.40478 0.353298,1.77054 0.659356,1.77054 0.113169,0 0.535721,-0.65363 0.939003,-1.45254 z m 25.246027,0.96449 c 0.428059,-0.22908 0.349256,-0.34842 -0.943291,-1.42845 -2.03948,-1.70414 -2.67524,-1.5228 -1.102578,0.3145 0.458294,0.53543 0.833263,1.06134 0.833263,1.16871 0,0.27297 0.655532,0.24338 1.212606,-0.0548 z m 1.961872,-0.84829 c -0.359946,-0.54933 -0.44869,-0.59073 -0.516092,-0.24076 -0.04477,0.23248 0.115331,0.56652 0.355777,0.74234 0.612815,0.44811 0.668472,0.27398 0.160315,-0.50158 z m -1.031803,-0.65815 c 0,-0.44225 -0.144726,-0.92421 -0.321613,-1.07103 -0.407182,-0.33793 -2.539959,-0.64192 -2.521527,-0.3594 0.01509,0.23138 2.377094,2.20067 2.664584,2.22157 0.09821,0.007 0.178556,-0.34887 0.178556,-0.79114 z M 20.226339,273.5519 c 0.246938,-0.62136 0.483387,-1.20669 0.525443,-1.30075 0.04206,-0.094 -0.404522,-0.007 -0.992396,0.1932 -1.244774,0.42415 -1.488817,0.84535 -0.958605,1.65457 0.561505,0.85698 0.92267,0.71837 1.425558,-0.54702 z m 1.602257,0.10303 1.353204,-0.55054 -0.561526,-0.52751 c -0.721405,-0.67773 -1.235724,-0.48058 -1.840901,0.70566 -0.258966,0.50762 -0.433301,0.92294 -0.387415,0.92294 0.04589,0 0.692375,-0.24774 1.436638,-0.55055 z m 16.588087,-0.27695 c -0.165634,-0.19958 -0.582653,-0.35837 -0.926707,-0.3529 -0.604516,0.01 -0.597528,0.0249 0.207706,0.45461 0.919496,0.49065 1.180024,0.45379 0.719001,-0.10171 z m -21.262934,-0.52522 c 0.223857,-0.58335 -0.06869,-0.56988 -0.631387,0.0291 l -0.544025,0.57907 0.523556,-0.1369 c 0.287956,-0.0753 0.581293,-0.28738 0.651856,-0.47127 z m 7.137236,0.0162 c 0.443653,-0.11896 1.026794,-1.12564 1.026794,-1.77251 0,-0.17689 -2.531676,0.32368 -2.752172,0.54419 -0.133307,0.1333 0.812208,1.37588 1.043407,1.37122 0.0887,-0.002 0.39559,-0.0661 0.681971,-0.1429 z m 13.403876,-0.38954 c -0.003,-0.31894 -2.402806,-2.08315 -2.833646,-2.08315 -0.147064,0 -0.258509,0.45472 -0.258509,1.05477 0,1.16863 0.09878,1.22996 2.083157,1.29355 0.669326,0.0214 1.010864,-0.0683 1.008998,-0.26517 z m 3.812022,0.18408 c 0,-0.1915 -2.408141,-2.02916 -2.65912,-2.02916 -0.35736,0 0.03999,1.49288 0.488168,1.83411 0.363486,0.27674 2.170952,0.43915 2.170952,0.19505 z m -14.540596,-0.35939 0.577167,-0.003 -0.55915,-0.59518 c -0.712811,-0.75875 -1.141734,-0.75411 -1.434343,0.0155 -0.322025,0.847 -0.303174,0.89233 0.303487,0.72975 0.294618,-0.0789 0.795394,-0.14501 1.112839,-0.1468 z m -8.785984,-0.36612 c 0.460049,-0.55431 0.131789,-0.65877 -0.360567,-0.11472 -0.237728,0.26266 -0.321611,0.4776 -0.186408,0.4776 0.135202,0 0.381341,-0.1633 0.546975,-0.36288 z m 1.780787,0.0258 c 1.039533,-0.36009 1.353514,-1.03701 0.72352,-1.55985 -0.315029,-0.26145 -0.495794,-0.1752 -1.201865,0.57345 -1.254306,1.32996 -1.147758,1.54966 0.478345,0.9864 z m 14.228482,-0.55574 c 0.165681,-1.28501 -0.157363,-1.51976 -1.799466,-1.30746 l -1.366225,0.1766 1.253744,1.00056 c 0.689558,0.55031 1.37594,1.0056 1.525289,1.01182 0.149352,0.006 0.323347,-0.39049 0.386658,-0.88152 z m -4.565399,-0.23808 c 0.151342,-0.74636 0.12952,-0.77374 -0.61654,-0.77374 -0.425388,0 -1.114282,0.0682 -1.530871,0.15149 l -0.757438,0.15148 0.663699,0.69275 c 0.494677,0.51634 0.844585,0.6748 1.373979,0.62226 0.588769,-0.0584 0.737118,-0.20286 0.867171,-0.84424 z m 2.121632,0.1838 c -0.891303,-0.75589 -1.666525,-0.9335 -1.666525,-0.38183 0,0.1857 -0.05391,0.48032 -0.119807,0.65471 -0.0897,0.23741 0.224334,0.33173 1.249895,0.37542 l 1.3697,0.0583 z m 6.666102,0.50067 c 0,-0.11459 -0.06696,-0.54312 -0.148797,-0.9523 -0.145188,-0.72594 -0.180818,-0.74399 -1.469111,-0.74399 l -1.320317,0 1.290558,0.93192 c 1.346788,0.97254 1.647667,1.11212 1.647667,0.76437 z m -14.242212,-1.11126 c 0.879354,-0.20943 1.000111,-0.71763 0.301158,-1.26744 -0.706757,-0.55593 -1.422237,-0.42342 -1.934431,0.3583 -0.300223,0.4582 -0.313431,0.63269 -0.07009,0.9259 0.164917,0.1987 0.472207,0.3104 0.682868,0.24819 0.210661,-0.0622 0.669886,-0.18143 1.020499,-0.26495 z m -2.329476,-0.48543 c 0.187441,-0.48846 0.182203,-0.57648 -0.03405,-0.57207 -0.402897,0.008 -0.823733,0.43708 -0.671158,0.68396 0.232338,0.37592 0.536531,0.32766 0.705205,-0.11189 z m 6.393979,-0.25239 c 0.49103,-0.0812 0.892782,-0.23193 0.892782,-0.33506 0,-0.26974 -1.532804,-1.17864 -1.987684,-1.17864 -0.411175,0 -0.778227,0.99784 -0.520466,1.41493 0.178883,0.28942 0.385522,0.30206 1.615368,0.0988 z m -2.108628,-0.69991 c 0.263575,-0.68687 0.151696,-0.80327 -0.629235,-0.65462 -1.021773,0.19451 -1.0988,0.29177 -0.549311,0.69356 0.602678,0.44068 0.999528,0.42756 1.178546,-0.0389 z m 7.152403,0.11372 c -0.177611,-0.28738 -1.96375,-1.15197 -2.397194,-1.16035 -0.359527,-0.007 -0.566928,1.13852 -0.231228,1.27708 0.587186,0.24234 2.789889,0.14454 2.628422,-0.11673 z m 2.753183,0.0463 c -0.196411,-0.11111 -0.624947,-0.27409 -0.9523,-0.36218 -0.571887,-0.15389 -0.577096,-0.1457 -0.133053,0.20927 0.254174,0.2032 0.682709,0.36618 0.9523,0.36221 0.39147,-0.006 0.41826,-0.0479 0.133053,-0.2093 z M 30.07928,268.7297 c 0,-0.3968 -0.158718,-0.47615 -0.9523,-0.47615 -1.124753,0 -1.176791,0.10109 -0.297594,0.57805 0.899064,0.48774 1.249894,0.45915 1.249894,-0.1019 z m 3.928238,0.23808 c -0.08093,-0.13094 -0.3283,-0.23643 -0.54972,-0.23443 -0.346939,0.003 -0.353224,0.0355 -0.04547,0.23443 0.466239,0.30131 0.781405,0.30131 0.595187,0 z"
       id="path31465"
       inkscape:connector-curvature="0"
       sodipodi:nodetypes="sssssssssscsssscccscssscscsssscccssscsscssssssssscssscsccsscccscssccscsssccccssccccsccccsccccscsscccssscscscssccsccsccscscccsccssccssccccccsscsssccsssssscccccscscssscscscccccscccsscccsscsssssscccssscccccscscsssssscssscsccssscsscscccssccsccsscscsscccscssccscsccccsccscscccscscscssccsssccsssscssccccccscccssscssscsccsccccccscscsssccscsssccscscsscccssscssccscscsccscssccsscssccscscccssssscss" />
    <path
       style="fill:#ef2b2d;display:inline"
       d="m 26.71183,291.04571 c -1.507474,-0.58183 -2.482661,-1.46726 -3.064378,-2.78233 -0.422478,-0.95509 -0.548318,-1.04101 -2.321287,-1.58499 -2.418021,-0.74194 -4.656648,-2.23212 -5.405287,-3.59815 -0.715244,-1.30512 -0.79332,-3.69456 -0.164055,-5.02062 0.560274,-1.18071 2.736856,-3.13888 4.320886,-3.88734 7.264354,-3.4323 16.431884,-3.03524 19.762642,0.85603 1.079887,1.26158 1.214071,1.74097 1.052118,3.75856 -0.136955,1.70619 -0.718113,2.83193 -2.177149,4.21736 -1.600788,1.52003 -5.674693,3.1404 -8.960052,3.56384 -2.729136,0.35173 -2.850073,0.56376 -1.703761,2.98684 1.005718,2.12591 0.825492,2.32644 -1.339677,1.4908 z"
       id="path31487"
       inkscape:connector-curvature="0" />
    <path
       inkscape:connector-curvature="0"
       id="path31996"
       d="m 281.17051,316.39948 c -0.92166,-1.95531 -2.19914,-3.48382 -3.44137,-4.11755 -0.51229,-0.26134 -2.28338,-0.79827 -3.93576,-1.19316 -3.79373,-0.90664 -4.28302,-1.16083 -4.89426,-2.54262 -0.4272,-0.96578 -0.45315,-1.24082 -0.21453,-2.27455 0.2581,-1.11819 0.24208,-1.20313 -0.32642,-1.73002 -0.71603,-0.66358 -0.77365,-1.59141 -0.13825,-2.22678 0.45408,-0.45411 0.45265,-0.46416 -0.11904,-0.83877 -0.76758,-0.50293 -0.72967,-1.02129 0.16349,-2.23578 0.72908,-0.99142 0.73432,-1.0178 0.29759,-1.50071 -0.2445,-0.27033 -0.84271,-0.69475 -1.32936,-0.94313 -1.69129,-0.86319 -1.75223,-1.60537 -0.29445,-3.58563 0.59535,-0.80874 1.633,-2.57795 2.30587,-3.93157 l 1.2234,-2.46115 0.1781,-3.86608 c 0.19565,-4.24637 0.48684,-5.56045 1.78109,-8.03748 2.67875,-5.12685 8.5519,-8.63513 15.95163,-9.52855 6.7014,-0.8091 15.35765,2.40446 18.87121,7.00579 2.20833,2.89201 2.88511,5.06426 3.04986,9.78917 0.18631,5.34328 -0.10426,6.38991 -3.58487,12.91285 -1.60517,3.00823 -2.74262,7.84241 -2.78752,11.84695 -0.0251,2.24146 0.61283,4.98868 1.85208,7.97552 0.46177,1.113 0.93235,2.26469 1.04574,2.5593 l 0.20615,0.53567 -12.55258,-0.005 -12.55255,-0.005 -0.75525,-1.60229 z m 11.84214,-21.18396 c 0.50915,-0.36009 0.92802,-0.73004 0.9308,-0.82208 0.006,-0.19953 -1.58055,-0.6642 -2.25661,-0.66092 -0.84324,0.004 -1.06729,0.31162 -0.91426,1.25471 0.12016,0.74041 0.23784,0.88299 0.72882,0.88299 0.32202,0 1.00208,-0.29462 1.51125,-0.6547 z m 1.53109,0.31537 c 0.60092,-0.26743 0.64847,-0.34518 0.29964,-0.4901 -0.25922,-0.1077 -0.70528,0.0138 -1.19038,0.32459 -0.61404,0.39323 -0.67651,0.49542 -0.29964,0.49008 0.26188,-0.004 0.79755,-0.14975 1.19038,-0.32457 z m -4.26131,-0.72091 c -0.099,-0.39442 -0.31697,-0.60628 -0.62378,-0.60628 -0.60785,0 -0.59912,0.34863 0.0244,0.97213 0.59264,0.59264 0.80712,0.46172 0.5994,-0.36585 z m 7.20689,-1.79452 c 0.41996,-0.52257 1.02713,-1.01629 1.34927,-1.09714 0.64835,-0.16272 0.79983,-0.57152 0.21176,-0.57152 -0.48934,0 -2.72105,1.88555 -2.72105,2.29897 0,0.5534 0.37059,0.35204 1.16002,-0.63031 z m -8.74888,0.17244 c -0.23512,-0.23336 -0.26248,-0.20603 -0.13327,0.13328 0.0894,0.23479 0.22253,0.36692 0.29583,0.29364 0.0733,-0.0733 1.4e-4,-0.26541 -0.16256,-0.42692 z m 5.68209,0.18515 c 0.27341,-0.32944 0.21686,-1.32767 -0.14501,-2.56004 -0.10892,-0.37092 -0.18936,-0.37978 -0.76105,-0.0838 -1.03903,0.53791 -2.25817,1.71274 -2.14127,2.06347 0.0597,0.17899 0.58273,0.45206 1.16235,0.60678 1.43166,0.38223 1.5472,0.38061 1.88498,-0.0264 z m 2.68051,-1.37464 c 0.62197,-0.51372 1.13086,-1.06151 1.13086,-1.2173 0,-0.29 -3.2596,-1.01556 -3.49682,-0.77837 -0.10978,0.1098 0.2336,2.00395 0.53771,2.96616 0.11854,0.37497 0.34447,0.25502 1.82825,-0.97049 z m -7.61471,0.24117 c 0.19056,-0.49682 -0.64516,-2.90735 -1.03393,-2.98223 -0.19782,-0.0381 -0.60986,0.19704 -0.91562,0.52253 l -0.55595,0.59179 0.62595,0.74391 c 0.34428,0.40913 0.62597,0.89637 0.62597,1.08274 0,0.42139 1.09398,0.45739 1.25358,0.0413 z m 1.77642,-0.41663 0.60533,-0.47615 -0.64992,0 -0.6499,0 0.62957,-1.07429 c 0.45987,-0.78472 0.54619,-1.09989 0.32021,-1.16921 -0.92602,-0.28412 -1.39738,-0.2966 -1.74,-0.046 -0.33375,0.24405 -0.34404,0.42694 -0.0823,1.46278 0.28245,1.11777 0.59833,1.77907 0.84984,1.77907 0.0615,0 0.38425,-0.21427 0.71717,-0.47615 z m 10.03684,-0.33167 0.56788,-0.31475 -0.60849,-0.15273 c -0.74665,-0.18741 -1.36055,0.0236 -1.36055,0.46751 0,0.41408 0.65406,0.41408 1.40116,-3e-5 z m 2.11044,-1.32143 c 0.8485,-0.70782 0.64685,-2.63225 -0.27578,-2.63225 -0.60298,0 -2.5216,1.85032 -2.5216,2.43181 0,0.73073 1.99074,0.87338 2.79738,0.20044 z m -16.14096,-0.83457 c 0.30128,-0.32069 0.49157,-0.72949 0.42291,-0.90845 -0.14765,-0.38475 -2.58692,-1.01899 -3.12497,-0.8125 -0.5551,0.213 -0.13984,1.12143 0.80836,1.76835 0.99194,0.67675 1.21871,0.67108 1.8937,-0.0474 z m 11.508,0.24198 c 0.26379,-0.26379 0.29678,-0.62133 0.14563,-1.57758 -0.10752,-0.68007 -0.24724,-1.28825 -0.31052,-1.35153 -0.2821,-0.2821 -1.97812,0.85904 -2.56036,1.72271 l -0.64201,0.9523 0.75634,0.27947 c 1.05503,0.38985 2.20686,0.37866 2.61092,-0.0254 z m 3.18711,-2.03966 c 0.16491,-0.19642 0.30326,-0.48672 0.30743,-0.64516 0.0105,-0.39568 -1.71598,-0.88036 -2.46565,-0.69221 -0.57772,0.14501 -0.60357,0.21629 -0.46473,1.28113 0.0808,0.62016 0.2492,1.32649 0.37409,1.56961 0.21008,0.40899 0.29143,0.38227 1.08803,-0.35712 0.47353,-0.43953 0.99591,-0.95984 1.16083,-1.15625 z m 3.3351,0.9108 c 0.74636,-0.70118 0.69268,-1.07993 -0.18023,-1.27165 -0.92644,-0.20349 -1.00172,-0.11638 -0.80509,0.9317 0.18822,1.0033 0.25478,1.02627 0.98532,0.33995 z m -13.12051,-0.56479 c 0.0871,-0.46441 0.11878,-0.87778 0.0703,-0.91861 -0.3308,-0.27878 -1.87962,-0.30223 -2.10401,-0.0319 -0.40708,0.49051 0.16873,1.51187 0.9175,1.62746 0.34225,0.0528 0.69777,0.11211 0.79005,0.13173 0.0923,0.0195 0.23905,-0.34431 0.32616,-0.8087 z m -8.37629,0.26758 c -0.16253,-0.42359 -0.74796,-0.66426 -0.9238,-0.37976 -0.0724,0.11718 0.0581,0.3235 0.28997,0.45851 0.58757,0.34207 0.78586,0.31745 0.63383,-0.0788 z m -1.32558,-0.99363 c -0.12494,-0.61676 -3.05293,-1.43348 -3.05293,-0.85157 0,0.10825 0.29462,0.15396 0.65471,0.10153 0.43146,-0.0628 0.93885,0.10666 1.48797,0.49699 1.01881,0.7242 1.00489,0.72034 0.91025,0.25305 z m 5.70654,-0.33571 c 0.0644,-0.55053 -0.0541,-0.62921 -1.53087,-1.01651 -1.76349,-0.46253 -2.14286,-0.3339 -1.89755,0.64349 0.10725,0.42732 0.3144,0.61371 0.68489,0.61626 0.29212,0.002 0.69182,0.11027 0.88824,0.24057 0.19641,0.13033 0.67851,0.20903 1.07133,0.17492 0.56462,-0.049 0.72885,-0.18701 0.78396,-0.65873 z m 1.44969,0.0239 c 0.25714,-0.16284 0.21419,-0.24486 -0.19648,-0.37521 -0.59031,-0.18734 -0.85384,-0.0438 -0.6185,0.337 0.18894,0.30569 0.37861,0.31459 0.81498,0.0382 z m 16.86133,-1.4883 c -0.0688,-0.51344 -0.25431,-1.08905 -0.41208,-1.27918 -0.24163,-0.29114 -0.39523,-0.1961 -0.97371,0.60247 -0.95142,1.31339 -0.90266,1.80456 0.20596,2.07516 1.09598,0.26752 1.36113,-0.0468 1.17983,-1.39845 z m -27.54664,0.98977 c 0,-0.13094 -0.15437,-0.23807 -0.34304,-0.23807 -0.1887,0 -0.40928,0.10713 -0.49022,0.23807 -0.0809,0.13094 0.0735,0.23808 0.34306,0.23808 0.26962,0 0.4902,-0.10714 0.4902,-0.23808 z m -1.23313,-0.30557 c 0.37456,-0.45134 0.0574,-0.76391 -1.20714,-1.18952 -1.08115,-0.36389 -1.13086,-0.36109 -1.13086,0.0638 0,0.51755 1.06582,1.43128 1.66951,1.43128 0.22817,0 0.529,-0.13751 0.66849,-0.30557 z m 5.02345,-0.26686 c 0.4343,-0.52331 0.0545,-1.48661 -0.86181,-2.18548 l -0.8344,-0.63644 -0.73339,0.73339 c -0.63561,0.63561 -0.69904,0.80876 -0.47577,1.29877 0.39644,0.87011 2.38913,1.41178 2.90537,0.78976 z m 20.48969,-0.70484 c -0.0105,-0.77432 -0.39075,-0.84291 -1.25687,-0.22665 -1.01851,0.72468 -1.09464,0.96154 -0.34649,1.0781 0.60335,0.094 1.60891,-0.44001 1.60336,-0.85145 z m -18.87252,0.17255 c 0.0443,-0.13291 -0.19003,-0.36499 -0.52079,-0.51569 -0.66746,-0.30412 -0.71936,-0.23534 -0.34716,0.46015 0.25529,0.47698 0.71761,0.50658 0.86795,0.0555 z m 20.54264,-1.15692 c 0.54162,-0.87636 0.42718,-1.49126 -0.33066,-1.77666 -0.74622,-0.28102 -1.32246,0.96106 -1.01944,2.19743 0.24915,1.01658 0.51251,0.93449 1.3501,-0.42077 z m -26.93962,0.0171 c 0.0925,-0.48034 -0.38908,-2.24514 -0.71527,-2.62104 -0.11451,-0.13196 -0.44672,0.0138 -0.81372,0.35711 -1.2676,1.18571 -1.27084,1.92241 -0.0109,2.47963 0.95235,0.42117 1.43017,0.35425 1.53992,-0.2157 z m 29.08235,-0.18391 c 0,-0.38459 -0.0704,-0.45337 -0.26496,-0.25884 -0.1457,0.14573 -0.19296,0.38142 -0.10499,0.52377 0.24627,0.39846 0.36995,0.3099 0.36995,-0.26493 z m -27.1568,-0.53081 0.79139,-0.81653 -0.52612,-0.67144 c -0.61052,-0.77918 -1.87744,-1.16686 -2.08085,-0.63678 -0.11223,0.2925 0.29228,2.24235 0.57316,2.76269 0.17528,0.32466 0.44232,0.18756 1.24242,-0.63794 z m -5.84952,-0.96907 c -0.0754,-0.19641 -0.17916,-0.35711 -0.2306,-0.35711 -0.0515,0 -0.0936,0.1607 -0.0936,0.35711 0,0.19642 0.10378,0.35712 0.23062,0.35712 0.12682,0 0.16894,-0.1607 0.0936,-0.35712 z m 1.57679,-0.41663 c 1.00489,-1.10462 0.92399,-1.4503 -0.41301,-1.76456 -0.62197,-0.1462 -1.16755,-0.23208 -1.2124,-0.19084 -0.1127,0.10368 0.66244,2.72915 0.80579,2.72915 0.0637,0 0.43249,-0.34819 0.81962,-0.77375 z m 29.39701,-1.77256 c -0.89171,-2.36906 -0.99911,-2.37066 -0.87105,-0.0131 0.0867,1.59527 0.0924,1.60701 0.77915,1.60701 l 0.69187,0 -0.59997,-1.59401 z m 1.77928,0.6783 c 0.15436,-0.37268 0.21276,-0.94818 0.12977,-1.27889 -0.16989,-0.67685 -1.08662,-1.27318 -1.63424,-1.06306 -0.31345,0.12028 -0.29188,0.32974 0.16249,1.57892 0.57837,1.59008 0.91916,1.78382 1.34198,0.76303 z m -27.63711,-0.98861 c -0.25908,-0.7432 -0.67866,-0.75922 -0.67866,-0.0259 0,0.49931 0.20239,0.73986 0.62249,0.73986 0.23553,0 0.24834,-0.16272 0.0562,-0.71394 z m -2.45377,-0.25526 c 0.23424,-0.37902 -0.11732,-2.36385 -0.4187,-2.36385 -0.14304,0 -0.68018,0.45506 -1.19364,1.01122 l -0.93356,1.01125 0.67253,0.28743 c 0.84653,0.3618 1.66848,0.38547 1.87337,0.0539 z m 1.71559,-0.6839 c 0.39535,-0.3298 0.53567,-0.70194 0.53567,-1.42052 0,-0.91392 -0.042,-0.97365 -0.68506,-0.97365 -0.95321,0 -1.28299,0.48369 -1.08339,1.58896 0.26189,1.45023 0.37278,1.52268 1.23278,0.80521 z m 28.01915,-1.26332 c -0.0909,-0.29462 -0.35166,-0.90359 -0.57938,-1.35326 -0.41265,-0.81484 -0.41506,-0.81577 -0.70425,-0.27543 -0.38316,0.71594 -0.15249,1.54791 0.51891,1.87148 0.80934,0.39004 0.94659,0.34647 0.76472,-0.24279 z m -30.87093,-1.02655 c -0.0798,-0.0798 -0.27341,0.10513 -0.43025,0.41096 -0.27264,0.5316 -0.26624,0.53798 0.14508,0.14511 0.23665,-0.22603 0.36497,-0.47627 0.28517,-0.55607 z m 27.90918,-0.1138 c 0,-0.28812 -0.89407,-2.10783 -1.25927,-2.56298 -0.19677,-0.24524 -0.3604,-0.17148 -0.77613,0.3499 l -0.52679,0.66066 0.98352,0.89023 c 0.97677,0.88417 1.57867,1.13662 1.57867,0.66219 z m 1.37367,-0.99256 c 0.24379,-0.57436 0.20751,-0.69704 -0.33152,-1.12105 -0.66109,-0.52003 -1.48602,-0.84545 -1.67188,-0.65956 -0.12211,0.12208 0.73901,1.95507 1.17221,2.49517 0.2789,0.3477 0.4386,0.21041 0.83119,-0.71456 z m -24.00056,-1.55725 c 0.005,-0.16368 -0.13651,-0.2976 -0.31528,-0.2976 -0.36202,0 -2.76994,1.88549 -2.76994,2.16896 0,0.0991 0.29462,0.21406 0.65471,0.25551 0.50932,0.0586 0.85083,-0.13621 1.53773,-0.87698 0.48567,-0.52376 0.88742,-1.08621 0.89278,-1.24989 z m -4.27559,1.22442 c 0,-0.46503 -0.17791,-0.41273 -0.47327,0.13915 -0.20555,0.38409 -0.1852,0.44516 0.11066,0.33164 0.19943,-0.0765 0.36261,-0.2884 0.36261,-0.47079 z m 1.91653,-0.74827 c 0.63699,-0.49103 1.16273,-0.97313 1.1683,-1.07134 0.005,-0.0982 -0.46146,-0.17856 -1.03789,-0.17856 -0.96148,0 -1.06964,0.0619 -1.30941,0.74975 -0.28847,0.82753 -0.3373,1.39293 -0.12027,1.39293 0.0776,0 0.66225,-0.40175 1.29927,-0.89278 z m 22.70736,-1.32708 c -0.13997,-0.36473 -1.69317,-1.02998 -1.90655,-0.8166 -0.11573,0.11573 0.72117,2.11197 1.00398,2.39478 0.26312,0.26309 1.06865,-1.14541 0.90257,-1.57818 z m -1.76957,0.85093 c 0,-0.0982 -0.21319,-0.52674 -0.47265,-0.9523 -0.52631,-0.86319 -1.05255,-0.97466 -1.72564,-0.36552 -0.43603,0.39461 -0.41282,0.42575 0.69547,0.93249 1.28268,0.58648 1.50411,0.64324 1.50282,0.38533 z m -16.48879,-0.90723 c -0.22381,-0.19065 -1.60403,0.25143 -1.60403,0.51376 0,0.26296 0.16108,0.24943 0.83029,-0.0697 0.45665,-0.21777 0.80483,-0.41761 0.77374,-0.44408 z m 20.29409,-0.22939 c -0.16563,-0.19958 -0.35016,-0.31383 -0.41008,-0.25391 -0.16511,0.16511 0.17034,0.61678 0.45808,0.61678 0.15786,0 0.13979,-0.1366 -0.048,-0.36287 z m -6.5503,-0.34249 c 0.23257,-0.25701 0.36549,-0.61681 0.29538,-0.79958 -0.11799,-0.30747 -2.01243,-0.77758 -2.23534,-0.55469 -0.25188,0.25188 0.27753,1.40517 0.72866,1.58736 0.71734,0.28974 0.74253,0.28489 1.2113,-0.23309 z m -16.07931,-0.39809 c 0.27139,-0.34502 0.49342,-0.83762 0.49342,-1.09472 0,-0.45805 -0.0136,-0.4586 -0.67514,-0.0274 -0.37132,0.242 -1.04091,0.73344 -1.48797,1.09208 l -0.81283,0.65206 0.99456,0.003 c 0.79262,0.002 1.09469,-0.12471 1.48796,-0.62466 z m 4.02335,0.48079 c 0.66888,-0.13377 0.7214,-0.21136 0.60433,-0.89278 -0.23988,-1.39659 -0.24645,-1.39852 -1.62926,-0.48039 -0.72304,0.48008 -1.31463,1.01839 -1.31463,1.19628 0,0.35045 1.06801,0.4312 2.33956,0.17689 z m 9.80227,-0.40318 c 0,-0.17139 -0.14566,-0.51079 -0.32366,-0.75424 -0.31212,-0.42685 -0.35247,-0.42211 -1.13086,0.13306 l -0.80719,0.57569 0.83326,0.1472 c 1.32722,0.2345 1.42845,0.22729 1.42845,-0.10171 z m -7.10868,-0.80864 c 0.63625,-0.4852 1.1568,-0.95276 1.1568,-1.03899 0,-0.30073 -2.20264,-0.4681 -2.53464,-0.19258 -0.3928,0.326 -0.43558,2.11375 -0.0506,2.11375 0.14942,0 0.79219,-0.39699 1.42843,-0.88218 z m 13.77478,0.64787 c 0,-0.12889 -0.30466,-0.57531 -0.67704,-0.99206 -0.46896,-0.52488 -0.80331,-0.70925 -1.08802,-0.59999 -0.70366,0.27 -0.363,1.15359 0.57469,1.49063 1.05236,0.37825 1.19037,0.39002 1.19037,0.10142 z m 1.19038,0.0535 c 0,-0.0994 -0.24106,-0.32888 -0.53567,-0.50987 -0.53377,-0.3279 -0.53405,-0.32725 -0.0821,0.1808 0.48522,0.5455 0.61781,0.61611 0.61781,0.32907 z m -12.37991,-0.3949 c 0,-0.56352 -0.27312,-1.09122 -0.56114,-1.08419 -0.14965,0.004 -0.69297,0.32504 -1.2073,0.71422 l -0.93521,0.70761 1.35184,0 c 1.00825,0 1.35181,-0.0858 1.35181,-0.33764 z m 2.48198,-0.35799 0.66645,-0.69563 -1.09515,-0.16423 c -1.47949,-0.22186 -1.76304,-0.0795 -1.63115,0.81919 0.0902,0.61448 0.21439,0.7363 0.75073,0.7363 0.39946,0 0.89485,-0.26324 1.30912,-0.69563 z m -9.32042,-0.37571 1.23732,-0.83326 -1.22123,0 c -1.26413,0 -1.51027,0.19717 -1.51027,1.20985 0,0.60588 0.0564,0.59166 1.49418,-0.37659 z m 14.34428,-0.36759 c 0.0845,-0.1367 -0.0188,-0.51167 -0.22953,-0.83326 -0.4731,-0.72206 -1.32962,-0.76051 -1.93907,-0.0871 -0.44196,0.48834 -0.4418,0.50393 0.009,0.83326 0.53555,0.39161 1.93689,0.44808 2.16001,0.0871 z m 1.06287,-0.71003 c -0.57738,-0.36504 -0.74706,-0.26557 -0.46047,0.2699 0.2022,0.37785 0.33602,0.43418 0.54205,0.22818 0.20601,-0.20601 0.18587,-0.32898 -0.0816,-0.49808 z m -5.30167,-0.0229 c 0.31344,-0.31345 -0.0811,-1.39981 -0.50787,-1.39833 -0.39725,0.002 -1.80687,0.91483 -1.80687,1.1709 0,0.12456 0.34819,0.26969 0.77375,0.3225 0.42556,0.0528 0.88623,0.11318 1.02372,0.13413 0.13749,0.021 0.37025,-0.0822 0.51727,-0.2292 z m -4.00631,-0.53578 c 0.29005,-0.3495 0.12075,-1.10153 -0.24798,-1.10153 -0.12215,0 -0.66256,0.22472 -1.20092,0.49936 -0.74091,0.37799 -0.89773,0.55069 -0.64523,0.71058 0.51162,0.32393 1.79025,0.25772 2.09413,-0.10841 z m 5.69123,0.0412 c 0.4424,-0.44239 0.34602,-0.60371 -0.42853,-0.71739 -0.54886,-0.0806 -0.71423,-0.0133 -0.71423,0.2904 0,0.72542 0.61467,0.95509 1.14276,0.42699 z m -9.83416,-0.18772 c 0.0834,-0.13497 -0.0121,-0.17487 -0.22403,-0.0936 -0.41244,0.15825 -0.48791,0.3289 -0.14547,0.3289 0.12323,0 0.28948,-0.10589 0.3695,-0.23533 z m 5.84634,-0.36597 c 0.9118,-0.47151 0.88568,-0.58907 -0.13087,-0.58907 -0.67454,0 -0.83327,0.0907 -0.83327,0.47615 0,0.57169 0.0628,0.57905 0.96414,0.11292 z"
       style="fill:url(#radialGradient32753);fill-opacity:1;stroke:none;display:inline"
       sodipodi:nodetypes="ccsscccccccsscssssssscccccccccccscscccscssccsssccccccsccccssccssccccssscccscccsssccsscssccccscccsccscsccccssssssccccccccsccscscccsccccccccccsccsscsscsssccscscccscccsccsssscsccccsccsscsccsssssssccsscsscccscssscsscsssccscsscccccscscssscsccscsccccsscscsscsccscsccsccccssccscccsscccccccscsccccscssssccccscscscsccssssssscccssccssscscssscccsccccccscsssscscccscssccsccssc" />
    <path
       style="fill:#009ec8;display:inline"
       d="m 290.96489,291.40096 c -0.082,-0.13265 0.0107,-0.54043 0.20575,-0.90618 1.02784,-1.92665 1.33743,-3.04127 0.9169,-3.30115 -0.11337,-0.0701 -1.01046,-0.24779 -1.9936,-0.39492 -7.41008,-1.10907 -11.60935,-4.36794 -11.3517,-8.80961 0.0385,-0.66454 0.1796,-1.41421 0.31347,-1.66595 0.36595,-0.6883 2.14775,-2.56286 2.43603,-2.56286 0.13873,0 0.42392,-0.15422 0.63374,-0.34271 1.2967,-1.16487 8.32539,-1.77663 11.61804,-1.01117 4.77385,1.10978 6.39691,1.8426 8.80625,3.97616 1.39341,1.53549 1.31029,1.3801 1.78575,3.91291 0.0813,1.43847 0.007,1.8711 -0.47541,2.79147 -0.58488,1.11448 -2.50748,2.7787 -3.59748,3.11393 -0.32933,0.1013 -0.70754,0.26705 -0.84045,0.36835 -0.1329,0.10125 -0.62224,0.26174 -1.08741,0.35659 -1.23113,0.25103 -1.80044,0.68896 -2.40599,1.8507 -0.61418,1.17835 -0.8963,1.43635 -2.47931,2.26728 -1.18526,0.62216 -2.22814,0.77208 -2.48458,0.35716 z"
       id="path31630"
       inkscape:connector-curvature="0"
       sodipodi:nodetypes="ccssssssscccsssssc" />
    <path
       inkscape:connector-curvature="0"
       id="path32123"
       d="m 64.785638,313.08429 c -0.07397,-0.074 -0.134484,-2.77805 -0.134484,-6.00909 0,-5.61276 0.01643,-5.88333 0.368948,-6.07198 0.434184,-0.23236 2.28996,-0.25948 2.638038,-0.0385 0.187856,0.11925 0.230038,1.47906 0.190743,6.14857 l -0.05045,5.99547 -1.439159,0.055 c -0.791535,0.0303 -1.499673,-0.005 -1.573636,-0.0795 z m 6.631181,-0.11249 c -0.05244,-0.13668 -0.0726,-2.86554 -0.0448,-6.0642 l 0.05055,-5.81572 1.237267,0 c 1.161632,0 1.252634,0.032 1.488673,0.52453 0.310041,0.64689 0.432876,0.6507 1.163116,0.0363 0.712452,-0.59949 1.534641,-0.84821 2.785728,-0.84271 1.95507,0.009 3.362789,1.16009 3.719849,3.04286 0.228971,1.20733 0.253112,8.76838 0.02912,9.12147 -0.111988,0.17653 -0.587384,0.23095 -1.666092,0.19072 l -1.509389,-0.0563 -0.09537,-4.11015 c -0.116914,-5.0385 -0.216887,-5.29579 -2.002816,-5.15473 -0.654262,0.0517 -1.259644,0.45394 -1.589554,1.05615 -0.254978,0.46543 -0.335943,1.32703 -0.4129,4.39384 l -0.09573,3.81489 -1.481156,0.0558 c -1.082334,0.0408 -1.506829,-0.0109 -1.576502,-0.1927 z m -6.758956,-14.25163 c -0.285044,-0.53262 -0.242698,-2.16667 0.06713,-2.5904 0.216831,-0.29652 0.509266,-0.36182 1.620205,-0.36182 0.813039,0 1.448837,0.0932 1.588528,0.23288 0.253176,0.2532 0.330872,2.21448 0.109121,2.75448 -0.114423,0.27867 -0.389083,0.33383 -1.662302,0.33383 -1.312729,0 -1.552737,-0.0514 -1.722685,-0.36897 z m 55.976687,-10.30976 c -3.41388,-0.48223 -5.49677,-2.26138 -6.46403,-5.52147 -0.39836,-1.34264 -0.41269,-4.89784 -0.0249,-6.17597 0.68269,-2.25005 2.40768,-4.30304 4.37068,-5.20173 1.77538,-0.81279 5.04995,-0.92832 7.15065,-0.25231 1.28715,0.41423 1.40097,0.73051 0.85628,2.37956 -0.45691,1.38329 -0.56975,1.45907 -1.67687,1.12588 -0.51393,-0.15468 -1.45161,-0.28121 -2.08373,-0.28121 -2.74392,0 -4.32164,1.87858 -4.32164,5.14575 0,3.23318 1.50145,5.14949 4.03771,5.15333 1.31656,0.002 1.30312,0.0294 1.30312,-2.65159 0,-1.62879 0.0749,-2.49602 0.22889,-2.65001 0.31052,-0.31052 3.61881,-0.31052 3.92933,0 0.16297,0.16296 0.22889,1.34219 0.22889,4.09429 0,4.42413 0.15814,4.0548 -1.94204,4.53569 -1.58628,0.36321 -4.16483,0.50146 -5.59235,0.29979 z m 16.84091,-0.0186 c -2.80504,-0.41123 -4.50515,-2.18108 -5.21041,-5.42412 -0.39384,-1.81106 -0.63031,-10.88438 -0.29976,-11.50205 0.2184,-0.4081 0.32563,-0.42655 2.17463,-0.37499 l 1.9449,0.0542 0.1131,5.05473 c 0.12642,5.65024 0.31599,6.97532 1.1279,7.884 0.51098,0.57186 0.6127,0.60409 1.90628,0.60409 1.2919,0 1.39581,-0.0328 1.90314,-0.60056 0.82906,-0.9279 1.00266,-2.12587 1.12916,-7.79215 l 0.11498,-5.15011 2.00281,0 2.00282,0 0.0602,5.05473 c 0.0674,5.65717 -0.083,7.08164 -0.93906,8.89801 -0.90148,1.9127 -2.41008,2.97546 -4.69197,3.30541 -1.47182,0.21282 -1.81839,0.21165 -3.3387,-0.0112 z m 35.7091,-0.005 c -1.62185,-0.24186 -3.38853,-1.07925 -4.39017,-2.08088 -2.43663,-2.43662 -3.01213,-7.74739 -1.2223,-11.27942 0.93689,-1.84889 2.90281,-3.4015 5.03336,-3.97521 1.72814,-0.46532 5.13026,-0.19958 6.5469,0.51141 0.48235,0.2421 0.51952,0.33226 0.40134,0.97358 -0.18562,1.0072 -0.62292,2.19541 -0.8625,2.34347 -0.11245,0.0695 -0.59566,0.009 -1.07379,-0.13527 -1.82416,-0.54898 -3.92034,-0.23334 -4.97335,0.74886 -1.11958,1.04436 -1.70299,3.28903 -1.3785,5.30391 0.40988,2.54516 1.51155,3.74237 3.61959,3.93352 1.69134,0.15339 1.73281,0.0888 1.73281,-2.69872 0,-1.5523 0.0759,-2.39875 0.22889,-2.55169 0.23899,-0.239 3.10711,-0.3275 3.66576,-0.11313 0.26184,0.10046 0.30172,0.64382 0.30172,4.11072 l 0,3.99497 -0.65022,0.27167 c -1.56151,0.65244 -4.86953,0.95682 -6.97954,0.64221 z M 77.181314,288.2817 c -0.294697,-0.051 -0.57449,-0.19389 -0.621759,-0.31745 -0.07465,-0.19515 5.248848,-16.24539 5.549672,-16.73213 0.06214,-0.10052 1.177915,-0.18268 2.481547,-0.18268 2.248167,0 2.38256,0.0219 2.642176,0.4292 0.15044,0.23606 1.453217,4.01666 2.895055,8.40141 2.044322,6.2169 2.570941,8.0228 2.391795,8.20197 -0.321861,0.32193 -3.867532,0.31171 -4.258337,-0.0121 -0.160587,-0.13316 -0.400097,-0.64816 -0.532238,-1.14445 -0.469844,-1.76476 -0.463006,-1.76078 -3.038736,-1.76078 -1.247911,0 -2.403689,0.0517 -2.568392,0.11492 -0.167466,0.0643 -0.47115,0.69142 -0.688993,1.4229 -0.214247,0.71939 -0.468368,1.3567 -0.564717,1.41624 -0.245498,0.15175 -3.039104,0.27533 -3.687073,0.1631 z m 8.947527,-6.81736 c 0.107701,-0.28064 -1.214735,-5.62349 -1.461621,-5.90521 -0.07883,-0.0899 -0.230176,-0.002 -0.33631,0.19706 -0.299022,0.55871 -1.561022,5.62671 -1.447048,5.81112 0.05568,0.0901 0.78555,0.16382 1.621924,0.16382 1.126762,0 1.5472,-0.0691 1.623055,-0.26679 z m 9.850046,6.74541 -0.431163,-0.17325 0.04968,-8.44583 0.04967,-8.44586 1.81207,0 1.812068,0 3.051908,4.5086 c 3.40595,5.03164 3.50336,5.1622 3.74112,5.01529 0.093,-0.0575 0.16913,-2.14901 0.16913,-4.6478 0,-3.66626 0.0517,-4.58611 0.26763,-4.76536 0.16973,-0.14087 0.85001,-0.20172 1.85976,-0.16639 l 1.59212,0.0557 0,8.48729 0,8.48728 -0.80993,0.17081 c -0.47547,0.10033 -1.21647,0.10069 -1.79437,0 l -0.98444,-0.16989 -3.19573,-4.67324 c -1.75765,-2.57026 -3.310643,-4.67323 -3.451091,-4.67323 -0.203759,0 -0.274636,0.94266 -0.350734,4.6648 l -0.09537,4.66482 -0.47686,0.13246 c -0.687368,0.19094 -2.311885,0.17542 -2.815464,-0.0269 z m 53.553393,0.0722 c -0.26227,-0.0538 -0.54455,-0.16256 -0.62729,-0.24167 -0.16852,-0.16113 5.04824,-15.86463 5.49866,-16.55202 0.2732,-0.41697 0.3998,-0.43885 2.54249,-0.43885 1.91396,0 2.29724,0.0505 2.53446,0.33383 0.38135,0.45546 5.55939,16.21763 5.43454,16.54296 -0.20733,0.54031 -3.78953,0.61861 -4.41851,0.0966 -0.13703,-0.11373 -0.35345,-0.65319 -0.48092,-1.19874 -0.37799,-1.61781 -0.45738,-1.65959 -3.15572,-1.65959 -2.71678,0 -2.79409,0.0399 -3.1485,1.6235 -0.12941,0.57831 -0.33977,1.13814 -0.46746,1.24414 -0.2615,0.21702 -2.97986,0.39996 -3.71175,0.24983 z m 8.96498,-6.86437 c 0,-0.28595 -1.21099,-5.14002 -1.44062,-5.77449 -0.0658,-0.18189 -0.16083,-0.20734 -0.29035,-0.0778 -0.25073,0.25074 -1.71714,5.79696 -1.58797,6.00599 0.0543,0.0879 0.82333,0.15984 1.70887,0.15984 1.36657,0 1.61007,-0.0474 1.61007,-0.31352 z m -93.546364,6.49909 c -0.262916,-0.26293 -0.299742,-1.27782 -0.299742,-8.26092 0,-6.11869 0.05585,-8.03755 0.241318,-8.29117 0.206018,-0.28177 0.519889,-0.32198 2.145871,-0.27489 l 1.904555,0.0551 0.05027,6.47836 c 0.03208,4.13358 0.121573,6.54995 0.247265,6.67608 0.109514,0.10987 1.484786,0.24002 3.097004,0.29304 l 2.900013,0.0954 0.05591,1.60498 c 0.04024,1.15528 -0.01321,1.64884 -0.190744,1.76147 -0.13566,0.086 -2.407853,0.1578 -5.049315,0.15939 -4.114365,0.002 -4.845622,-0.04 -5.102405,-0.29681 z m 120.097944,0.0708 c -0.17089,-0.17089 -0.22889,-2.2959 -0.22889,-8.38603 0,-7.8695 0.013,-8.16409 0.36895,-8.3546 0.57009,-0.30509 10.33901,-0.26436 10.76194,0.0449 0.27596,0.20179 0.32192,0.49681 0.27488,1.7644 l -0.0565,1.52203 -3.4334,0.11095 c -1.88837,0.061 -3.45486,0.12537 -3.48109,0.14306 -0.0262,0.0176 -0.0477,0.63297 -0.0477,1.36733 0,0.73437 0.0215,1.34801 0.0477,1.36367 0.0262,0.0157 1.24939,0.08 2.71811,0.14306 l 2.67042,0.11461 0.0562,1.50783 c 0.0339,0.90963 -0.0263,1.59072 -0.1518,1.71671 -0.11897,0.11942 -1.28637,0.24967 -2.72665,0.30423 l -2.51862,0.0953 0,1.52597 0,1.52594 3.52877,0.0954 3.52876,0.0954 0.11891,0.85833 c 0.13468,0.97225 0.0147,2.07782 -0.2641,2.43201 -0.26422,0.33573 -10.83072,0.34475 -11.16594,0.01 z"
       style="fill:#009ec8;display:inline"
       sodipodi:nodetypes="csccscsccscssssssscsccscccscsccsssssssscsscsssssscscscssssscccssscsssssscccscsccscssccssssccsscscccscccssccccccscscsccccccsssccccsssscccsssssssccsscssscssscscscssscscscscscscscccccsss" />
    <g
       style="display:inline"
       id="g33075"
       transform="matrix(0.50878158,0,0,0.50878158,270.83681,106.37704)">
      <path
         sodipodi:nodetypes="cccc"
         inkscape:connector-curvature="0"
         id="path32771"
         d="m 192.66183,325.06265 -8.43774,8.85963 148.02416,70.47223 z"
         style="fill:#ffd600;fill-opacity:1;stroke:none" />
      <path
         sodipodi:nodetypes="cccc"
         inkscape:connector-curvature="0"
         id="path33036"
         d="m 175.30621,342.60009 -8.9832,8.90082 166.22356,52.97597 z"
         style="fill:#3fa033;fill-opacity:1;stroke:none" />
      <path
         sodipodi:nodetypes="cccc"
         inkscape:connector-curvature="0"
         id="path33038"
         d="m 158.34833,359.37614 -10.58836,10.32417 184.4059,34.95839 z"
         style="fill:#009fee;fill-opacity:1;stroke:none" />
      <path
         sodipodi:nodetypes="cccc"
         inkscape:connector-curvature="0"
         id="path33040"
         d="m 140.20719,377.37666 -8.85964,8.71901 200.7842,18.59716 z"
         style="fill:#69187f;fill-opacity:1;stroke:none" />
      <path
         sodipodi:nodetypes="cccc"
         inkscape:connector-curvature="0"
         id="path33042"
         d="m 121.48646,395.75788 -8.84258,8.76019 219.80325,0.14063 z"
         style="fill:#1c307e;fill-opacity:1;stroke:none" />
      <path
         sodipodi:nodetypes="ccccccc"
         inkscape:connector-curvature="0"
         id="path33061"
         d="m 340.84629,348.02799 0.54933,54.3834 22.15619,0.18311 c 3.84529,-0.36622 8.42302,-4.39462 8.23991,-8.78924 l 0.18311,-37.72047 c -0.0527,-3.53553 -4.89412,-8.29301 -8.78923,-8.05679 z"
         style="fill:none;stroke:#000000;stroke-width:5.72911358;stroke-linecap:round;stroke-linejoin:miter;stroke-miterlimit:4;stroke-opacity:1;stroke-dasharray:none" />
      <path
         style="fill:none;stroke:#000000;stroke-width:5.72911358;stroke-linecap:round;stroke-linejoin:miter;stroke-miterlimit:4;stroke-opacity:1;stroke-dasharray:none"
         d="m 388.45465,360.47941 c -0.0629,2.89219 -0.33294,24.01655 -0.18311,28.56502 0.14983,4.54847 4.3139,14.73277 15.38116,14.0994 11.06725,-0.63336 15.63933,-10.02415 15.74738,-13.36697 0.10807,-3.34282 0.47502,-24.72834 0.54933,-28.01569 0.0743,-3.28735 -4.0509,-13.90629 -16.1136,-13.91628 -12.0627,-0.0104 -15.31832,9.74233 -15.38116,12.63452 z"
         id="path33063"
         inkscape:connector-curvature="0"
         sodipodi:nodetypes="zzzzzzz" />
      <path
         sodipodi:nodetypes="cccccccc"
         inkscape:connector-curvature="0"
         id="path33065"
         d="m 434.96435,347.47866 0.54933,54.3834 22.15619,0.18311 c 3.84529,-0.36622 8.42302,-4.39462 8.23991,-8.78924 -0.17222,-6.24675 2.76548,-13.91392 -8.33146,-21.05754 3.36757,-2.56171 7.71106,-7.82044 6.68348,-15.19806 -0.96829,-4.08485 -6.17588,-9.75788 -10.07099,-9.52166 z"
         style="fill:none;stroke:#000000;stroke-width:5.72911358;stroke-linecap:round;stroke-linejoin:miter;stroke-miterlimit:4;stroke-opacity:1;stroke-dasharray:none" />
      <path
         style="fill:none;stroke:#000000;stroke-width:5.72911358;stroke-linecap:round;stroke-linejoin:miter;stroke-miterlimit:4;stroke-opacity:1;stroke-dasharray:none"
         d="m 504.5458,348.028 -22.33931,-1e-5 0.27467,27.1917 0.27466,27.1917 22.15619,0.18311"
         id="path33067"
         inkscape:connector-curvature="0"
         sodipodi:nodetypes="ccccc" />
      <path
         sodipodi:nodetypes="cccc"
         inkscape:connector-curvature="0"
         id="path33069"
         d="m 517.36344,397.65055 c 6.33954,7.25363 30.1692,7.98802 31.12853,-6.22571 0.16065,-10.84145 -28.42663,-21.17128 -29.84678,-31.49476 -1.44667,-13.101 22.41287,-15.47104 28.56503,-8.2399"
         style="fill:none;stroke:#000000;stroke-width:5.72911358;stroke-linecap:round;stroke-linejoin:miter;stroke-miterlimit:4;stroke-opacity:1;stroke-dasharray:none" />
      <path
         inkscape:connector-curvature="0"
         id="path33071"
         d="m 482.33322,372.24473 18.38583,0"
         style="fill:none;stroke:#000000;stroke-width:5.72911358;stroke-linecap:round;stroke-linejoin:miter;stroke-miterlimit:4;stroke-opacity:1;stroke-dasharray:none" />
      <path
         sodipodi:nodetypes="cc"
         style="fill:none;stroke:#000000;stroke-width:5.72911358;stroke-linecap:round;stroke-linejoin:miter;stroke-miterlimit:4;stroke-opacity:1;stroke-dasharray:none"
         d="m 435.72125,372.24473 21.75225,0"
         id="path33073"
         inkscape:connector-curvature="0" />
    </g>
    <flowRoot
       xml:space="preserve"
       id="flowRoot33153"
       style="font-size:26px;font-style:normal;font-variant:normal;font-weight:bold;font-stretch:normal;text-align:start;line-height:110.00000238%;writing-mode:lr-tb;text-anchor:start;fill:#ffffff;fill-opacity:1;fill-rule:nonzero;stroke:none;display:inline;font-family:Arial;-inkscape-font-specification:Arial Bold"
       transform="translate(12.728291,-3.1820727)"><flowRegion
         id="flowRegion33155"><rect
           id="rect33157"
           width="432.05246"
           height="204.3933"
           x="9.0002604"
           y="71.367798"
           style="fill:#ffffff" /></flowRegion><flowPara
         id="flowPara33159"
         style="font-size:20px">LingQuest is a game about languages.  Listen to people speaking then try to find people who speak the same language.</flowPara><flowPara
         style="font-size:20px"
         id="flowPara33361">Click on the green button to find out more.</flowPara><flowPara
         id="flowPara33161"
         style="font-size:20px">LingQuest is an output of the language in Interaction consortium working with the DOBES archive and the Max Planck Institute for Psycholinguistics</flowPara></flowRoot>  </g>
  <g
     inkscape:groupmode="layer"
     id="layer11"
     inkscape:label="MoreButton"
     style="display:inline">
    <rect
       style="fill:#00a47a;fill-opacity:1;fill-rule:nonzero;stroke:#000000;stroke-width:3;stroke-miterlimit:4;stroke-dasharray:none;display:inline"
       id="rect33169"
       width="82.299065"
       height="75.278305"
       x="477.92609"
       y="175.72278"
       ry="11.61685" />
    <g
       style="stroke:#ffffff;display:inline"
       id="g33200"
       transform="matrix(0.47062666,0,0,0.47062666,267.29695,-23.810253)">
      <path
         inkscape:connector-curvature="0"
         id="path33184"
         d="m 534.98597,442.11204 0,125.69187"
         style="fill:none;stroke:#ffffff;stroke-width:5.36250019;stroke-linecap:butt;stroke-linejoin:miter;stroke-miterlimit:4;stroke-opacity:1;stroke-dasharray:none" />
      <path
         sodipodi:nodetypes="cc"
         style="fill:none;stroke:#ffffff;stroke-width:5.37375021;stroke-linecap:butt;stroke-linejoin:miter;stroke-miterlimit:4;stroke-opacity:1;stroke-dasharray:none"
         d="m 534.98597,442.11204 c 48.1329,45.12255 37.50349,85.9249 0,124.75147"
         id="path33186"
         inkscape:connector-curvature="0" />
      <path
         inkscape:connector-curvature="0"
         id="path33190"
         d="m 534.60612,442.11204 c -48.1329,45.06806 -37.50349,85.82115 0,124.60083"
         style="fill:none;stroke:#ffffff;stroke-width:5.37375021;stroke-linecap:butt;stroke-linejoin:miter;stroke-miterlimit:4;stroke-opacity:1;stroke-dasharray:none"
         sodipodi:nodetypes="cc" />
      <path
         inkscape:connector-curvature="0"
         id="path33192"
         d="m 472.5378,503.7647 125.09523,0"
         style="fill:none;stroke:#ffffff;stroke-width:5.37375021;stroke-linecap:butt;stroke-linejoin:miter;stroke-miterlimit:4;stroke-opacity:1;stroke-dasharray:none" />
      <path
         sodipodi:nodetypes="cc"
         style="fill:none;stroke:#ffffff;stroke-width:5.37375021;stroke-linecap:butt;stroke-linejoin:miter;stroke-miterlimit:4;stroke-opacity:1;stroke-dasharray:none"
         d="m 490.23808,463.19327 c 28.96492,11.69411 58.8785,13.71193 90.49019,-1.59103"
         id="path33194"
         inkscape:connector-curvature="0" />
      <path
         inkscape:connector-curvature="0"
         id="path33196"
         d="m 487.25489,544.33612 c 34.73242,-10.77927 60.27065,-11.54577 92.08122,2.9832"
         style="fill:none;stroke:#ffffff;stroke-width:5.37375021;stroke-linecap:butt;stroke-linejoin:miter;stroke-miterlimit:4;stroke-opacity:1;stroke-dasharray:none"
         sodipodi:nodetypes="cc" />
      <path
         sodipodi:nodetypes="cccccccc"
         inkscape:connector-curvature="0"
         id="path33198"
         d="m 484.07281,532.80111 c 7.88555,2.70299 15.48889,4.13605 21.28011,-2.58543 l -7.95518,-4.97199 43.35574,-21.67787 -10.34173,43.7535 -8.7507,-5.17087 c -4.60041,9.60955 -18.54507,11.4747 -29.2353,6.16527 l -11.53501,-14.71709"
         style="fill:#000000;stroke:none" />
      <path
         transform="translate(-1.9887954,-1.9887954)"
         d="m 599.02521,505.75351 a 62.050419,62.050419 0 1 1 -124.10084,0 62.050419,62.050419 0 1 1 124.10084,0 z"
         sodipodi:ry="62.050419"
         sodipodi:rx="62.050419"
         sodipodi:cy="505.75351"
         sodipodi:cx="536.97479"
         id="path33182"
         style="fill:none;stroke:#ffffff;stroke-width:8.60000038;stroke-miterlimit:4;stroke-dasharray:none"
         sodipodi:type="arc" />
    </g>
  </g>
  <g
     inkscape:groupmode="layer"
     id="layer12"
     inkscape:label="InfoButton"
     style="display:inline">
    <path
       sodipodi:type="arc"
       style="fill:#f6aa8b;fill-opacity:1;fill-rule:nonzero;stroke:#000000;stroke-width:8.89999962;stroke-linecap:round;stroke-linejoin:round;stroke-miterlimit:4;stroke-opacity:1;stroke-dasharray:none;stroke-dashoffset:0;display:inline"
       id="path28766"
       sodipodi:cx="99.846642"
       sodipodi:cy="257.27942"
       sodipodi:rx="53.720306"
       sodipodi:ry="53.720306"
       d="m 153.56695,257.27942 a 53.720306,53.720306 0 1 1 -107.440615,0 53.720306,53.720306 0 1 1 107.440615,0 z"
       transform="matrix(0.54870274,0,0,0.54870274,472.25378,-101.06696)" />
    <path
       style="fill:#000000;fill-opacity:1;fill-rule:nonzero;stroke:none;display:inline"
       d="m 536.6213,23.370425 -9.50095,9.500943 -9.48508,-9.485081 -7.66102,7.661027 9.48508,9.485081 -9.50094,9.500941 7.67689,7.67689 9.50094,-9.500942 9.48508,9.485086 7.66103,-7.661027 -9.48509,-9.485086 9.50095,-9.500943 -7.67689,-7.676889 z"
       id="rect33146"
       inkscape:connector-curvature="0" />
  </g>
</svg>
