<?xml version="1.0" encoding="UTF-8" standalone="no"?>
<!-- Created with Inkscape (http://www.inkscape.org/) -->

<svg
   xmlns:dc="http://purl.org/dc/elements/1.1/"
   xmlns:cc="http://creativecommons.org/ns#"
   xmlns:rdf="http://www.w3.org/1999/02/22-rdf-syntax-ns#"
   xmlns:svg="http://www.w3.org/2000/svg"
   xmlns="http://www.w3.org/2000/svg"
   xmlns:xlink="http://www.w3.org/1999/xlink"
   xmlns:sodipodi="http://sodipodi.sourceforge.net/DTD/sodipodi-0.dtd"
   xmlns:inkscape="http://www.inkscape.org/namespaces/inkscape"
   width="568"
   height="320.00003"
   id="svg2"
   version="1.1"
   inkscape:version="0.91 r13725"
   sodipodi:docname="ScorePage_Redesign1.svg"
   inkscape:export-filename="/Users/pplsuser/Documents/MPI/LanguageMemory/AppDevelopment/Assets/Images/GuessRound/Drag2.png"
   inkscape:export-xdpi="90.040451"
   inkscape:export-ydpi="90.040451">
  <defs
     id="defs4">
    <linearGradient
       inkscape:collect="always"
       id="linearGradient4004">
      <stop
         style="stop-color:#c1e3f1;stop-opacity:1;"
         offset="0"
         id="stop4006" />
      <stop
         style="stop-color:#c1e3f1;stop-opacity:0;"
         offset="1"
         id="stop4008" />
    </linearGradient>
    <linearGradient
       id="linearGradient4134">
      <stop
         style="stop-color:#009ec8;stop-opacity:1;"
         offset="0"
         id="stop4136" />
      <stop
         style="stop-color:#8ecfe6;stop-opacity:1;"
         offset="1"
         id="stop4138" />
    </linearGradient>
    <linearGradient
       id="linearGradient4227">
      <stop
         id="stop4229"
         offset="0"
         style="stop-color:#ffffff;stop-opacity:1;" />
      <stop
         id="stop4231"
         offset="1"
         style="stop-color:#ffffff;stop-opacity:0;" />
    </linearGradient>
    <linearGradient
       id="linearGradient4235">
      <stop
         style="stop-color:#ffffff;stop-opacity:1;"
         offset="0"
         id="stop4237" />
      <stop
         style="stop-color:#ffffff;stop-opacity:0;"
         offset="1"
         id="stop4239" />
    </linearGradient>
    <linearGradient
       id="linearGradient4241">
      <stop
         id="stop4243"
         offset="0"
         style="stop-color:#ffffff;stop-opacity:1;" />
      <stop
         id="stop4245"
         offset="1"
         style="stop-color:#8ecfe6;stop-opacity:1;" />
    </linearGradient>
    <linearGradient
       id="linearGradient4267">
      <stop
         style="stop-color:#ffffff;stop-opacity:1;"
         offset="0"
         id="stop4269" />
      <stop
         style="stop-color:#f6aa8b;stop-opacity:1;"
         offset="1"
         id="stop4271" />
    </linearGradient>
    <linearGradient
       id="linearGradient4273">
      <stop
         style="stop-color:#ffffff;stop-opacity:1;"
         offset="0"
         id="stop4275" />
      <stop
         style="stop-color:#00a47a;stop-opacity:1;"
         offset="1"
         id="stop4277" />
    </linearGradient>
    <linearGradient
       inkscape:collect="always"
       xlink:href="#linearGradient4004"
       id="linearGradient4021"
       gradientUnits="userSpaceOnUse"
       x1="284.65509"
       y1="143.19354"
       x2="284.65509"
       y2="188.97968" />
    <linearGradient
       inkscape:collect="always"
       xlink:href="#linearGradient4004"
       id="linearGradient4034"
       gradientUnits="userSpaceOnUse"
       x1="284.65509"
       y1="143.19354"
       x2="284.65509"
       y2="188.97968" />
    <linearGradient
       inkscape:collect="always"
       xlink:href="#linearGradient4004"
       id="linearGradient4048"
       gradientUnits="userSpaceOnUse"
       x1="284.65509"
       y1="143.19354"
       x2="284.65509"
       y2="188.97968" />
    <clipPath
       id="clipPath4275"
       clipPathUnits="userSpaceOnUse">
      <path
         inkscape:connector-curvature="0"
         id="path4277"
         d="M 0,320 568,320 568,0 0,0 0,320 Z" />
    </clipPath>
    <clipPath
       id="clipPath4283"
       clipPathUnits="userSpaceOnUse">
      <path
         inkscape:connector-curvature="0"
         id="path4285"
         d="m 0,319.995 568,0 0,-319.99011719 -568,0 L 0,319.995 Z" />
    </clipPath>
    <clipPath
       id="clipPath4287"
       clipPathUnits="userSpaceOnUse">
      <path
         inkscape:connector-curvature="0"
         id="path4289"
         d="m 0,319.995 568,0 0,-319.99 -568,0 0,319.99 z" />
    </clipPath>
    <linearGradient
       id="linearGradient4291"
       spreadMethod="pad"
       gradientTransform="matrix(-1.4e-5,-319.99023,-319.99023,1.4e-5,283.99951,319.99512)"
       gradientUnits="userSpaceOnUse"
       y2="0"
       x2="1"
       y1="0"
       x1="0">
      <stop
         id="stop4293"
         offset="0"
         style="stop-opacity:1;stop-color:#009dc8" />
      <stop
         id="stop4295"
         offset="1"
         style="stop-opacity:1;stop-color:#80cee3" />
    </linearGradient>
    <clipPath
       id="clipPath4323"
       clipPathUnits="userSpaceOnUse">
      <path
         inkscape:connector-curvature="0"
         id="path4325"
         d="m 83.2534,285.794 185.9536,0 0,-70.713 -185.9536,0 0,70.713 z" />
    </clipPath>
    <clipPath
       id="clipPath4327"
       clipPathUnits="userSpaceOnUse">
      <path
         inkscape:connector-curvature="0"
         id="path4329"
         d="m 83.2534,285.794 185.9536,0 0,-70.713 -185.9536,0 0,70.713 z" />
    </clipPath>
    <clipPath
       id="clipPath4351"
       clipPathUnits="userSpaceOnUse">
      <path
         inkscape:connector-curvature="0"
         id="path4353"
         d="m 460.187,257.655 84.672,0 0,-16.156 -84.672,0 0,16.156 z" />
    </clipPath>
    <clipPath
       id="clipPath4355"
       clipPathUnits="userSpaceOnUse">
      <path
         inkscape:connector-curvature="0"
         id="path4357"
         d="m 460.187,257.655 84.672,0 0,-16.156 -84.672,0 0,16.156 z" />
    </clipPath>
    <clipPath
       id="clipPath4403"
       clipPathUnits="userSpaceOnUse">
      <path
         inkscape:connector-curvature="0"
         id="path4405"
         d="m 83.2534,238.896 145.9686,0 0,-32.313 -145.9686,0 0,32.313 z" />
    </clipPath>
    <clipPath
       id="clipPath4407"
       clipPathUnits="userSpaceOnUse">
      <path
         inkscape:connector-curvature="0"
         id="path4409"
         d="m 83.2534,238.896 145.9686,0 0,-32.313 -145.9686,0 0,32.313 z" />
    </clipPath>
    <clipPath
       id="clipPath4439"
       clipPathUnits="userSpaceOnUse">
      <path
         inkscape:connector-curvature="0"
         id="path4441"
         d="m 298.917,239.345 46.187,0 0,-32.313 -46.187,0 0,32.313 z" />
    </clipPath>
    <clipPath
       id="clipPath4443"
       clipPathUnits="userSpaceOnUse">
      <path
         inkscape:connector-curvature="0"
         id="path4445"
         d="m 298.917,239.345 46.187,0 0,-32.313 -46.187,0 0,32.313 z" />
    </clipPath>
    <clipPath
       id="clipPath4487"
       clipPathUnits="userSpaceOnUse">
      <path
         inkscape:connector-curvature="0"
         id="path4489"
         d="m 412.891,239.345 16.218,0 0,-32.313 -16.218,0 0,32.313 z" />
    </clipPath>
    <clipPath
       id="clipPath4491"
       clipPathUnits="userSpaceOnUse">
      <path
         inkscape:connector-curvature="0"
         id="path4493"
         d="m 412.891,239.345 16.218,0 0,-32.313 -16.218,0 0,32.313 z" />
    </clipPath>
    <clipPath
       id="clipPath4519"
       clipPathUnits="userSpaceOnUse">
      <path
         inkscape:connector-curvature="0"
         id="path4521"
         d="m 84.2393,168.667 94.1987,0 0,-20.195 -94.1987,0 0,20.195 z" />
    </clipPath>
    <clipPath
       id="clipPath4523"
       clipPathUnits="userSpaceOnUse">
      <path
         inkscape:connector-curvature="0"
         id="path4525"
         d="m 84.2393,168.667 94.1987,0 0,-20.195 -94.1987,0 0,20.195 z" />
    </clipPath>
    <clipPath
       id="clipPath4547"
       clipPathUnits="userSpaceOnUse">
      <path
         inkscape:connector-curvature="0"
         id="path4549"
         d="m 22.7529,127.63 284.8671,0 0,-90.1759 -284.8671,0 0,90.1759 z" />
    </clipPath>
    <clipPath
       id="clipPath4551"
       clipPathUnits="userSpaceOnUse">
      <path
         inkscape:connector-curvature="0"
         id="path4553"
         d="m 22.7529,127.63 284.8671,0 0,-90.1759 -284.8671,0 0,90.1759 z" />
    </clipPath>
    <clipPath
       id="clipPath4621"
       clipPathUnits="userSpaceOnUse">
      <path
         inkscape:connector-curvature="0"
         id="path4623"
         d="m 391.368,135.198 142.959,0 0,-20.195 -142.959,0 0,20.195 z" />
    </clipPath>
    <clipPath
       id="clipPath4645"
       clipPathUnits="userSpaceOnUse">
      <path
         inkscape:connector-curvature="0"
         id="path4647"
         d="m 353.38,92.5928 201.187,0 0,-16.1563 -201.187,0 0,16.1563 z" />
    </clipPath>
    <clipPath
       id="clipPath4649"
       clipPathUnits="userSpaceOnUse">
      <path
         inkscape:connector-curvature="0"
         id="path4651"
         d="m 353.38,92.5928 201.187,0 0,-16.1563 -201.187,0 0,16.1563 z" />
    </clipPath>
  </defs>
  <sodipodi:namedview
     id="base"
     pagecolor="#ffffff"
     bordercolor="#666666"
     borderopacity="1.0"
     inkscape:pageopacity="0.0"
     inkscape:pageshadow="2"
     inkscape:zoom="3.4675394"
     inkscape:cx="418.44043"
     inkscape:cy="60.874984"
     inkscape:document-units="px"
     inkscape:current-layer="layer7"
     showgrid="false"
     inkscape:window-width="1920"
     inkscape:window-height="1155"
     inkscape:window-x="0"
     inkscape:window-y="0"
     inkscape:window-maximized="1"
     fit-margin-top="0"
     fit-margin-left="0"
     fit-margin-right="0"
     fit-margin-bottom="0" />
  <metadata
     id="metadata7">
    <rdf:RDF>
      <cc:Work
         rdf:about="">
        <dc:format>image/svg+xml</dc:format>
        <dc:type
           rdf:resource="http://purl.org/dc/dcmitype/StillImage" />
        <dc:title />
      </cc:Work>
    </rdf:RDF>
  </metadata>
  <g
     inkscape:groupmode="layer"
     id="layer15"
     inkscape:label="Background"
     style="display:inline"
     transform="translate(598.00704,2.5121258)">
    <g
       style="display:inline"
       id="g4279"
       transform="matrix(1,0,0,-1.0000313,-598.00704,317.49289)">
      <g
         id="g4281" />
      <g
         id="g4297">
        <g
           clip-path="url(#clipPath4283)"
           id="g4299">
          <g
             id="g4301">
            <g
               clip-path="url(#clipPath4287)"
               id="g4303">
              <g
                 id="g4305">
                <g
                   id="g4307">
                  <path
                     d="m 0,319.995 568,0 0,-319.99 -568,0 0,319.99 z"
                     style="fill:url(#linearGradient4291);stroke:none"
                     id="path4309"
                     inkscape:connector-curvature="0" />
                </g>
              </g>
            </g>
          </g>
        </g>
      </g>
    </g>
  </g>
  <g
     inkscape:groupmode="layer"
     id="layer6"
     inkscape:label="ShareAndContinueButton"
     style="display:inline"
     transform="translate(598.00704,2.5121258)">
    <g
       id="g4613"
       transform="matrix(1,0,0,-1.0000313,-39.88304,222.55736)"
       style="display:inline;fill:#c1e3f1">
      <path
         d="m 0,0 c 0,-3.118 -2.551,-5.669 -5.669,-5.669 l -220.31,0 c -3.118,0 -5.668,2.551 -5.668,5.669 l 0,73.701 c 0,3.118 2.55,5.669 5.668,5.669 l 220.31,0 C -2.551,79.37 0,76.819 0,73.701 L 0,0 Z"
         style="fill:#c1e3f1;fill-opacity:1;fill-rule:nonzero;stroke:none"
         id="path4615"
         inkscape:connector-curvature="0" />
    </g>
    <g
       style="display:inline"
       id="g4633"
       transform="matrix(1,0,0,-1.0000313,-228.61254,195.32701)">
      <path
         d="m 0,0 -13.881,0 0,-22.865 23.768,0 -0.001,5.717"
         style="fill:none;stroke:#0073ab;stroke-width:4;stroke-linecap:butt;stroke-linejoin:round;stroke-miterlimit:4;stroke-dasharray:none;stroke-opacity:1"
         id="path4635"
         inkscape:connector-curvature="0" />
    </g>
    <g
       id="g4637"
       transform="matrix(1,0,0,-1.0000313,-237.57934,212.47595)"
       style="display:inline;fill:#0073ab">
      <path
         d="m 0,0 c 1.312,13.996 15.234,14.543 15.234,14.543 l 0,6.091 11.018,-9.136 -11.018,-9.136 0,6.091 C 15.236,8.453 7.084,9.938 0,0"
         style="fill:#0073ab;fill-opacity:1;fill-rule:nonzero;stroke:none"
         id="path4639"
         inkscape:connector-curvature="0" />
    </g>
    <g
       id="g4669"
       transform="matrix(1,0,0,-1.0000313,-174.99534,164.18544)"
       style="display:inline;fill:#0073ab">
      <path
         d="m 0,0 c 0,0 2.254,0.206 3.4,1.422 3.807,4.035 9.061,7.057 12.104,7.044 5.027,-0.018 5.045,-3.608 5.236,-4.154 l 22.194,0 c 3.455,-0.063 3.386,-6.148 0,-6.072 -4.45,0 -12.305,0.043 -16.793,0 l 3.875,0 c 1.798,-0.652 3.109,-4.728 -0.746,-6.234 -0.727,-0.01 -2.387,0 -3.157,0 l 3.285,0 c 1.446,-1.051 2.141,-5.649 -1.875,-6.297 -0.179,-0.007 -3.638,0.02 -4,0 0.207,-0.008 2.19,0.033 2.692,-0.222 2.814,-1.526 1.443,-5.99 -0.961,-6.192 l -13.094,0 c -3.635,0 -6.695,3.464 -10.117,5.103 -0.848,0.076 -2.105,0.129 -2.105,0.129 L 0,0 Z"
         style="fill:#0073ab;fill-opacity:1;fill-rule:nonzero;stroke:none"
         id="path4671"
         inkscape:connector-curvature="0" />
    </g>
    <text
       sodipodi:linespacing="110%"
       id="shareAndContinue"
       y="211.06563"
       x="-203.70033"
       style="font-style:normal;font-variant:normal;font-weight:normal;font-stretch:normal;font-size:14.15122223px;line-height:110.00000238%;font-family:'Open Sans';-inkscape-font-specification:'Open Sans';text-align:start;writing-mode:lr-tb;text-anchor:start;display:inline;opacity:1;fill:#000000;fill-opacity:1;fill-rule:nonzero;stroke:none;stroke-width:1.79999995;stroke-linecap:round;stroke-linejoin:round;stroke-miterlimit:4;stroke-dasharray:none;stroke-dashoffset:0;stroke-opacity:1"
       xml:space="preserve"
       inkscape:label="shareAndContinue"><tspan
         y="211.06563"
         x="-203.70033"
         id="tspan5602"
         sodipodi:role="line">SHARE AND CONTINUE</tspan></text>
  </g>
  <g
     inkscape:groupmode="layer"
     id="layer7"
     inkscape:label="ContinueWithoutSharing"
     style="display:inline"
     transform="translate(598.00704,2.5121258)">
    <g
       style="display:inline;fill:#c1e3f1"
       transform="matrix(0.99751015,0,0,-0.4031704,-40.171429,261.70119)"
       id="g5590">
      <path
         inkscape:connector-curvature="0"
         id="path5592"
         style="fill:#c1e3f1;fill-opacity:1;fill-rule:nonzero;stroke:none"
         d="m 0,0 c 0,-3.118 -2.551,-5.669 -5.669,-5.669 l -220.31,0 c -3.118,0 -5.668,2.551 -5.668,5.669 l 0,73.701 c 0,3.118 2.55,5.669 5.668,5.669 l 220.31,0 C -2.551,79.37 0,76.819 0,73.701 L 0,0 Z" />
    </g>
    <g
       id="g4673"
       transform="matrix(1,0,0,-1.0000313,-270.67894,245.05801)"
       style="display:inline;fill:#009ec8">
      <path
         d="m 0,0 c 0,0 1.102,0.101 1.66,0.694 1.86,1.97 4.424,3.446 5.91,3.44 2.455,-0.009 2.465,-1.762 2.557,-2.029 l 10.838,0 c 1.687,-0.031 1.654,-3.001 0,-2.964 -2.174,0 -6.008,0.02 -8.199,0 l 1.89,0 c 0.879,-0.319 1.52,-2.309 -0.363,-3.044 -0.355,-0.005 -1.166,0 -1.541,0 l 1.603,0 c 0.706,-0.514 1.045,-2.758 -0.916,-3.076 -0.087,-0.002 -1.775,0.01 -1.953,0 0.102,-0.003 1.071,0.017 1.315,-0.108 1.375,-0.745 0.705,-2.925 -0.469,-3.023 l -6.395,0 c -1.773,0 -3.269,1.691 -4.939,2.492 -0.414,0.036 -1.027,0.062 -1.027,0.062 L 0,0 Z"
         style="fill:#009ec8;fill-opacity:1;fill-rule:nonzero;stroke:none"
         id="path4675"
         inkscape:connector-curvature="0" />
    </g>
    <text
       xml:space="preserve"
       style="font-style:normal;font-variant:normal;font-weight:normal;font-stretch:normal;font-size:14.15122223px;line-height:110.00000238%;font-family:'Open Sans';-inkscape-font-specification:'Open Sans';text-align:start;writing-mode:lr-tb;text-anchor:start;display:inline;opacity:1;fill:#000000;fill-opacity:1;fill-rule:nonzero;stroke:none;stroke-width:1.79999995;stroke-linecap:round;stroke-linejoin:round;stroke-miterlimit:4;stroke-dasharray:none;stroke-dashoffset:0;stroke-opacity:1;"
       x="-246.95866"
       y="252.59363"
       id="text5596"
       sodipodi:linespacing="110%"><tspan
         sodipodi:role="line"
         id="tspan5598"
         x="-246.95866"
         y="252.59363">CONTINUE WITHOUT SHARING</tspan></text>
  </g>
  <g
     inkscape:groupmode="layer"
     id="layer4"
     inkscape:label="RankingBox"
     style="display:inline"
     transform="translate(598.00704,2.5121258)">
    <g
       style="display:inline"
       id="g4511"
       transform="matrix(1,0,0,-1.0000313,-281.89864,301.70824)">
      <path
         d="m 0,0 c 0,-3.118 -2.551,-5.669 -5.669,-5.669 l -291.806,0 c -3.118,0 -5.67,2.551 -5.67,5.669 l 0,152.85 c 0,3.118 2.552,5.669 5.67,5.669 l 291.806,0 C -2.551,158.519 0,155.968 0,152.85 L 0,0 Z"
         style="fill:#ffffff;fill-opacity:1;fill-rule:nonzero;stroke:none"
         id="path4513"
         inkscape:connector-curvature="0" />
    </g>
    <g
       style="display:inline"
       id="g4577"
       transform="matrix(1,0,0,-1.0000313,-539.44844,167.56039)">
      <path
         d="m 0,0 c 0,-7.531 -6.104,-13.637 -13.636,-13.637 -7.531,0 -13.635,6.106 -13.635,13.637 0,7.531 6.104,13.635 13.635,13.635 C -6.104,13.635 0,7.531 0,0"
         style="fill:#b3e2ee;fill-opacity:1;fill-rule:nonzero;stroke:none"
         id="path4579"
         inkscape:connector-curvature="0" />
    </g>
    <g
       id="g4581"
       transform="matrix(1,0,0,-1.0000313,-557.48064,154.9555)"
       style="display:inline;fill:#0073ab">
      <path
         d="m 0,0 c -2.041,-0.409 -3.449,-2.188 -4.395,-3.926 -0.619,-0.985 -0.814,-2.184 -0.519,-3.311 0.213,-0.986 0.526,-2.225 -0.32,-3.012 -0.776,-0.74 -2.127,-1.022 -2.333,-2.236 -0.281,-1.908 0.868,-3.613 1.456,-5.348 0.422,-1.186 0.44,-2.675 1.49,-3.521 1.023,-0.681 2.12,0.359 2.265,1.385 0.505,1.724 0.431,3.627 1.432,5.185 0.604,1.185 1.625,2.414 1.309,3.828 -0.426,1.232 -2.205,1.075 -2.68,2.253 -0.258,1.105 0.968,1.704 1.846,1.939 1.611,0.842 3.006,1.842 4.262,3.378 C 6.779,0.059 2.504,0.28 0,0"
         style="fill:#0073ab;fill-opacity:1;fill-rule:nonzero;stroke:none"
         id="path4583"
         inkscape:connector-curvature="0" />
    </g>
    <g
       id="g4585"
       transform="matrix(1,0,0,-1.0000313,-549.31854,158.0952)"
       style="display:inline;fill:#0073ab">
      <path
         d="m 0,0 c -1.229,-0.336 -2.344,-1.501 -2.293,-2.826 0.317,-1.077 1.796,-1.069 2.281,-2.018 -0.151,-0.79 0.244,-1.55 1.005,-1.874 0.458,-0.307 1.557,-0.612 1.728,-0.594 -1.416,0.171 -2.912,0.372 -4.298,-0.078 -1.005,-0.388 -1.033,-1.688 -0.718,-2.556 0.318,-0.866 0.647,-1.752 1.162,-2.521 0.729,-0.904 2.064,-1.449 2.195,-2.734 -0.023,-1.457 -1.529,-2.383 -1.636,-3.812 0.146,-0.987 1.361,-1.33 2.207,-1.053 1.091,0.274 2.172,0.837 2.715,1.871 0.964,1.506 1.494,3.422 3.121,4.386 1.021,0.607 1.913,1.554 2.06,2.783 C 9.808,-8.84 9.162,-6.654 8.423,-4.617 7.642,-2.797 6.5,-1.196 5.176,0.312 4.715,1.151 3.297,1.57 3.592,0.283 3.907,-0.41 4.07,-1.9 2.862,-1.455 1.898,-1.062 1.225,0.023 0.113,0.021 L 0,0 Z"
         style="fill:#0073ab;fill-opacity:1;fill-rule:nonzero;stroke:none"
         id="path4587"
         inkscape:connector-curvature="0" />
    </g>
    <g
       style="display:inline"
       id="g4589"
       transform="matrix(1,0,0,-1.0000313,-575.25414,163.32786)">
      <path
         d="M 0,0 C 5.295,-2.293 11.711,-2.498 16.64,-0.126 16.64,9.307 0,9.305 0,0"
         style="fill:#009ec8;fill-opacity:1;fill-rule:nonzero;stroke:none"
         id="path4591"
         inkscape:connector-curvature="0" />
    </g>
    <g
       style="display:inline"
       id="g4593"
       transform="matrix(1,0,0,-1.0000313,-561.73654,152.60773)">
      <path
         d="m 0,0 c 0.002,-2.872 -2.325,-5.199 -5.195,-5.199 -2.871,-0.001 -5.2,2.323 -5.201,5.195 l 0,0.004 c 0,2.871 2.328,5.197 5.199,5.197 C -2.326,5.197 0,2.871 0,0"
         style="fill:#009ec8;fill-opacity:1;fill-rule:nonzero;stroke:none"
         id="path4595"
         inkscape:connector-curvature="0" />
    </g>
    <g
       id="g4597"
       transform="matrix(1,0,0,-1.0000313,-540.33124,167.47249)"
       style="display:inline;fill:#0073ab">
      <path
         d="M 0,0 C 5.294,-2.291 11.711,-2.496 16.64,-0.125 16.64,9.308 0,9.306 0,0"
         style="fill:#0073ab;fill-opacity:1;fill-rule:nonzero;stroke:none"
         id="path4599"
         inkscape:connector-curvature="0" />
    </g>
    <g
       id="g4601"
       transform="matrix(1,0,0,-1.0000313,-526.81364,156.75045)"
       style="display:inline;fill:#0073ab">
      <path
         d="m 0,0 c 0.002,-2.872 -2.324,-5.199 -5.195,-5.2 -2.871,-0.003 -5.2,2.323 -5.201,5.195 l 0,0.005 c 0,2.87 2.328,5.197 5.199,5.197 C -2.326,5.197 0,2.87 0,0"
         style="fill:#0073ab;fill-opacity:1;fill-rule:nonzero;stroke:none"
         id="path4603"
         inkscape:connector-curvature="0" />
    </g>
    <g
       style="display:inline"
       id="g4605"
       transform="matrix(1,0,0,-1.0000313,-556.31274,184.04721)">
      <path
         d="M 0,0 C 5.293,-2.291 11.71,-2.497 16.64,-0.125 16.64,9.307 0,9.307 0,0"
         style="fill:#ef2b2d;fill-opacity:1;fill-rule:nonzero;stroke:none"
         id="path4607"
         inkscape:connector-curvature="0" />
    </g>
    <g
       style="display:inline"
       id="g4609"
       transform="matrix(1,0,0,-1.0000313,-542.79514,173.32617)">
      <path
         d="m 0,0 c 0.002,-2.87 -2.325,-5.199 -5.195,-5.199 -2.871,-0.002 -5.2,2.325 -5.201,5.194 l 0,0.005 c 0,2.871 2.328,5.199 5.199,5.199 C -2.327,5.199 0,2.871 0,0"
         style="fill:#ef2b2d;fill-opacity:1;fill-rule:nonzero;stroke:none"
         id="path4611"
         inkscape:connector-curvature="0" />
    </g>
    <text
       xml:space="preserve"
       style="font-style:normal;font-variant:normal;font-weight:normal;font-stretch:normal;font-size:21.69386673px;line-height:110.00000238%;font-family:'Open Sans';-inkscape-font-specification:'Open Sans';text-align:start;writing-mode:lr-tb;text-anchor:start;display:inline;fill:#000000;fill-opacity:1;fill-rule:nonzero;stroke:none"
       x="-556.42487"
       y="205.69205"
       id="RankingText"
       sodipodi:linespacing="110%"
       inkscape:label="RankingText"><tspan
         sodipodi:role="line"
         x="-556.42487"
         y="205.69205"
         style="font-style:normal;font-variant:normal;font-weight:normal;font-stretch:normal;font-family:'Open Sans';-inkscape-font-specification:'Open Sans';text-align:start;text-anchor:start;fill:#000000"
         id="tspan4348">1 CHRISTOPHER   50500</tspan><tspan
         sodipodi:role="line"
         x="-556.42487"
         y="229.5553"
         style="font-style:normal;font-variant:normal;font-weight:normal;font-stretch:normal;font-family:'Open Sans';-inkscape-font-specification:'Open Sans';text-align:start;text-anchor:start;fill:#000000"
         id="tspan5630">2  XXXXXBob          40500</tspan><tspan
         sodipodi:role="line"
         x="-556.42487"
         y="253.41855"
         style="font-style:normal;font-variant:normal;font-weight:normal;font-stretch:normal;font-family:'Open Sans';-inkscape-font-specification:'Open Sans';text-align:start;text-anchor:start;fill:#000000"
         id="tspan4379">3  XXXXXXXXX XXXXXXXX</tspan><tspan
         sodipodi:role="line"
         x="-556.42487"
         y="277.2818"
         style="font-style:normal;font-variant:normal;font-weight:normal;font-stretch:normal;font-family:'Open Sans';-inkscape-font-specification:'Open Sans';text-align:start;text-anchor:start;fill:#000000"
         id="tspan5632">4 XXXXXXXXXXX XXXXXX</tspan><tspan
         sodipodi:role="line"
         x="-556.42487"
         y="301.14505"
         style="font-style:normal;font-variant:normal;font-weight:normal;font-stretch:normal;font-family:'Open Sans';-inkscape-font-specification:'Open Sans';text-align:start;text-anchor:start;fill:#000000"
         id="tspan5634">5 XXXXXXXXXXXX XXXXX</tspan></text>
    <text
       xml:space="preserve"
       style="font-style:normal;font-variant:normal;font-weight:bold;font-stretch:normal;font-size:22px;line-height:110.00000238%;font-family:'Open Sans';-inkscape-font-specification:'Open Sans Bold';text-align:start;writing-mode:lr-tb;text-anchor:start;opacity:1;fill:#000000;fill-opacity:1;fill-rule:nonzero;stroke:none;stroke-width:1.79999995;stroke-linecap:round;stroke-linejoin:round;stroke-miterlimit:4;stroke-dasharray:none;stroke-dashoffset:0;stroke-opacity:1"
       x="-515.51428"
       y="172.76848"
       id="highScoresText"
       sodipodi:linespacing="110%"
       inkscape:label="highScoresText"><tspan
         sodipodi:role="line"
         id="tspan5638"
         x="-515.51428"
         y="172.76848">HIGH SCORES</tspan></text>
  </g>
  <g
     inkscape:groupmode="layer"
     id="layer3"
     inkscape:label="EditProfileButton"
     style="display:inline"
     transform="translate(598.00704,2.5121258)">
    <g
       id="g4311"
       transform="matrix(1,0,0,-1.0000313,-45.04614,12.67575)"
       style="display:inline;fill:#c1e3f1">
      <path
         d="m 0,0 -105.156,0 0,-60.587333 105.156,0 c 3.118,0 5.669,2.551 5.669,5.669 l 0,49.249333 C 5.669,-2.551 3.118,0 0,0"
         style="fill:#c1e3f1;fill-opacity:1;fill-rule:nonzero;stroke:none"
         id="path4313-5"
         inkscape:connector-curvature="0"
         sodipodi:nodetypes="cccsssc" />
    </g>
    <g
       style="display:inline"
       id="g4375"
       transform="matrix(1,0,0,-1.0000313,-93.95824,28.713536)">
      <path
         d="m 0,0 -13.882,0 0,-22.865 23.768,0 -0.151,14.742"
         style="fill:none;stroke:#0073ab;stroke-width:4;stroke-linecap:butt;stroke-linejoin:round;stroke-miterlimit:4;stroke-dasharray:none;stroke-opacity:1"
         id="path4377"
         inkscape:connector-curvature="0" />
    </g>
    <g
       id="g4379"
       transform="matrix(1,0,0,-1.0000313,-84.46994,23.899885)"
       style="display:inline;fill:#0073ab">
      <path
         d="m 0,0 -13.238,-12.937 0.318,-1.962 2.158,-0.516 0.532,-2.335 1.204,-0.903 L 4.963,-5.039 0,0 Z"
         style="fill:#0073ab;fill-opacity:1;fill-rule:nonzero;stroke:none"
         id="path4381"
         inkscape:connector-curvature="0" />
    </g>
    <g
       id="g4383"
       transform="matrix(1,0,0,-1.0000313,-98.79314,38.215733)"
       style="display:inline;fill:#0073ab">
      <path
         d="M 0,0 -1.808,-4.148 0.106,-6.17 4.36,-4.893 2.819,-3.883 2.127,-2.233 0.479,-1.489 0,0 Z"
         style="fill:#0073ab;fill-opacity:1;fill-rule:nonzero;stroke:none"
         id="path4385"
         inkscape:connector-curvature="0" />
    </g>
    <g
       id="g4387"
       transform="matrix(1,0,0,-1.0000313,-100.33514,41.754944)"
       style="display:inline;fill:#0073ab">
      <path
         d="M 0,0 -1.648,-3.588 1.648,-2.631 0,0 Z"
         style="fill:#0073ab;fill-opacity:1;fill-rule:nonzero;stroke:none"
         id="path4389"
         inkscape:connector-curvature="0" />
    </g>
    <text
       xml:space="preserve"
       style="font-style:normal;font-variant:normal;font-weight:normal;font-stretch:normal;font-size:13.38617039px;line-height:110.00000238%;font-family:'Open Sans';-inkscape-font-specification:'Open Sans';text-align:start;writing-mode:lr-tb;text-anchor:start;opacity:1;fill:#000000;fill-opacity:1;fill-rule:nonzero;stroke:none;stroke-width:1.79999995;stroke-linecap:round;stroke-linejoin:round;stroke-miterlimit:4;stroke-dasharray:none;stroke-dashoffset:0;stroke-opacity:1"
       x="-139.24887"
       y="68.444649"
       id="text5586"
       sodipodi:linespacing="110%"><tspan
         sodipodi:role="line"
         id="tspan5588"
         x="-139.24887"
         y="68.444649">EDIT DETAILS</tspan></text>
    <g
       style="display:inline;fill:#c1e3f1"
       transform="matrix(0,1,1.0000313,0,-524.63611,177.95317)"
       id="g5606">
      <path
         sodipodi:nodetypes="cccsssc"
         inkscape:connector-curvature="0"
         id="path5608"
         style="fill:#c1e3f1;fill-opacity:1;fill-rule:nonzero;stroke:none"
         d="m -54.243193,351.95798 -50.912807,0 0,-401.533882 50.912807,0 c 3.118,0 5.669,2.551 5.669,5.669 l 0,390.195882 c 0,3.118 -2.551,5.669 -5.669,5.669" />
    </g>
    <circle
       style="opacity:1;fill:#ffffff;fill-opacity:1;fill-rule:nonzero;stroke:none;stroke-width:1.79999995;stroke-linecap:round;stroke-linejoin:round;stroke-miterlimit:4;stroke-dasharray:none;stroke-dashoffset:0;stroke-opacity:1"
       id="path5612"
       cx="-421.20044"
       cy="104.55664"
       r="16.109821" />
  </g>
  <g
     inkscape:groupmode="layer"
     id="layer1"
     inkscape:label="NameField"
     style="display:inline"
     transform="translate(598.00704,2.5121258)">
    <path
       inkscape:connector-curvature="0"
       id="path4317"
       d="m -150.20234,73.201769 0,-60.526019 -429.354,0 c -3.118,0 -5.669,2.55108 -5.669,5.669177 l 0,54.856842"
       style="fill:#ffffff;fill-opacity:1;fill-rule:nonzero;stroke:none" />
    <text
       xml:space="preserve"
       style="font-style:normal;font-variant:normal;font-weight:bold;font-stretch:normal;font-size:39.45893478px;line-height:110.00000238%;font-family:'Open Sans';-inkscape-font-specification:'Open Sans Bold';text-align:start;writing-mode:lr-tb;text-anchor:start;display:inline;fill:#000000;fill-opacity:1;fill-rule:nonzero;stroke:none"
       x="-515.98419"
       y="55.607479"
       id="NameFieldText"
       sodipodi:linespacing="110%"
       inkscape:label="NameFieldText"><tspan
         sodipodi:role="line"
         id="tspan3285"
         x="-515.98419"
         y="55.607479"
         style="fill:#000000">CHRISTOPHER</tspan></text>
  </g>
  <g
     inkscape:groupmode="layer"
     id="layer14"
     inkscape:label="ScoreBox"
     style="display:inline"
     transform="translate(598.00704,2.5121258)">
    <text
       inkscape:label="#text3283"
       sodipodi:linespacing="110%"
       id="ScoreText"
       y="117.62582"
       x="-192.02785"
       style="font-style:normal;font-variant:normal;font-weight:bold;font-stretch:normal;font-size:39.45893478px;line-height:110.00000238%;font-family:'Open Sans';-inkscape-font-specification:'Open Sans Bold';text-align:end;writing-mode:lr-tb;text-anchor:end;display:inline;fill:#000000;fill-opacity:1;fill-rule:nonzero;stroke:none"
       xml:space="preserve"><tspan
         style="text-align:end;text-anchor:end;fill:#000000"
         y="117.62582"
         x="-192.02785"
         sodipodi:role="line"
         id="tspan3303">1050000</tspan></text>
    <flowRoot
       xml:space="preserve"
       id="flowRoot4239"
       style="font-style:normal;font-variant:normal;font-weight:normal;font-stretch:normal;font-size:20px;line-height:110.00000238%;font-family:'Open Sans';-inkscape-font-specification:'Open Sans';text-align:end;writing-mode:lr-tb;text-anchor:end;fill:#0073ab;fill-opacity:0.68599034;fill-rule:nonzero;stroke:#000000;stroke-width:2.477;stroke-linecap:round;stroke-linejoin:round;stroke-miterlimit:4;stroke-dasharray:none;stroke-dashoffset:0;stroke-opacity:1"><flowRegion
         id="flowRegion4241"><rect
           id="rect4243"
           width="44.549019"
           height="38.980389"
           x="70.0056"
           y="164.07845" /></flowRegion><flowPara
         id="flowPara4245" /></flowRoot>  </g>
  <g
     inkscape:groupmode="layer"
     id="layer9"
     inkscape:label="CorrectBox"
     transform="translate(598.00704,2.5121258)">
    <text
       inkscape:label="NumCorrectText"
       sodipodi:linespacing="110%"
       id="NumCorrectText"
       y="118.50051"
       x="-525.60046"
       style="font-style:normal;font-variant:normal;font-weight:bold;font-stretch:normal;font-size:39.45893478px;line-height:110.00000238%;font-family:'Open Sans';-inkscape-font-specification:'Open Sans Bold';text-align:start;writing-mode:lr-tb;text-anchor:start;display:inline;fill:#000000;fill-opacity:1;fill-rule:nonzero;stroke:none"
       xml:space="preserve"><tspan
         style="fill:#000000"
         y="118.50051"
         x="-525.60046"
         id="tspan3289"
         sodipodi:role="line">3/5</tspan></text>
    <g
       id="g4427"
       transform="matrix(1,0,0,-1.0000313,-536.04863,104.29508)">
      <path
         d="m 0,0 c 0,-7.28 -5.902,-13.184 -13.184,-13.184 -7.281,0 -13.183,5.904 -13.183,13.184 0,7.281 5.902,13.184 13.183,13.184 C -5.902,13.184 0,7.281 0,0"
         style="fill:#95c11f;fill-opacity:1;fill-rule:nonzero;stroke:none"
         id="path4429"
         inkscape:connector-curvature="0" />
    </g>
    <g
       id="g4431"
       transform="matrix(1,0,0,-1.0000313,-542.62483,97.944381)">
      <path
         d="m 0,0 -9.544,-8.358 -3.387,4.053 -3.441,-2.876 6.439,-7.473 L 2.953,-3.37 0,0 Z"
         style="fill:#00a47a;fill-opacity:1;fill-rule:nonzero;stroke:none"
         id="path4433"
         inkscape:connector-curvature="0" />
    </g>
  </g>
  <g
     inkscape:groupmode="layer"
     id="layer10"
     inkscape:label="DobesBox"
     transform="translate(598.00704,2.5121258)">
    <text
       xml:space="preserve"
       style="font-style:normal;font-variant:normal;font-weight:bold;font-stretch:normal;font-size:39.45893478px;line-height:110.00000238%;font-family:'Open Sans';-inkscape-font-specification:'Open Sans Bold';text-align:start;writing-mode:lr-tb;text-anchor:start;display:inline;fill:#000000;fill-opacity:1;fill-rule:nonzero;stroke:none"
       x="-395.76956"
       y="118.34167"
       id="NumDobesText"
       sodipodi:linespacing="110%"
       inkscape:label="NumDobesText"><tspan
         sodipodi:role="line"
         id="tspan4192"
         x="-395.76956"
         y="118.34167"
         style="fill:#000000">2</tspan></text>
    <g
       id="g4463"
       transform="matrix(1,0,0,-1.0000313,-421.20923,91.350076)">
      <path
         d="M 0,0 C -2.196,0 -4.265,-0.539 -6.085,-1.488 L 12.181,-8.134 C 10.198,-3.358 5.491,0 0,0"
         style="fill:#fbba00;fill-opacity:1;fill-rule:nonzero;stroke:none"
         id="path4465"
         inkscape:connector-curvature="0" />
    </g>
    <g
       id="g4467"
       transform="matrix(1,0,0,-1.0000313,-428.76683,93.732951)">
      <path
         d="m 0,0 c -1.393,-0.977 -2.588,-2.216 -3.514,-3.646 l 24.231,-6.377 c -0.059,1.007 -0.232,1.983 -0.504,2.917 L 0,0 Z"
         style="fill:#008478;fill-opacity:1;fill-rule:nonzero;stroke:none"
         id="path4469"
         inkscape:connector-curvature="0" />
    </g>
    <g
       id="g4471"
       transform="matrix(1,0,0,-1.0000313,-434.39283,104.53399)">
      <path
         d="m 0,0 c 0,-0.149 0.007,-0.299 0.011,-0.447 l 25.503,-4.222 c 0.48,1.269 0.772,2.629 0.838,4.05 L 1.288,5.688 C 0.462,3.967 0,2.037 0,0"
         style="fill:#8ecfe6;fill-opacity:1;fill-rule:nonzero;stroke:none"
         id="path4473"
         inkscape:connector-curvature="0" />
    </g>
    <g
       id="g4475"
       transform="matrix(1,0,0,-1.0000313,-431.34693,112.96005)">
      <path
         d="m 0,0 19.17,-1.172 c 1.144,1.077 2.098,2.356 2.799,3.781 L -2.852,6.18 C -2.452,3.855 -1.447,1.737 0,0"
         style="fill:#64257e;fill-opacity:1;fill-rule:nonzero;stroke:none"
         id="path4477"
         inkscape:connector-curvature="0" />
    </g>
    <g
       id="g4479"
       transform="matrix(1,0,0,-1.0000313,-421.20923,117.718)">
      <path
         d="M 0,0 C 2.845,0 5.478,0.904 7.633,2.438 L -8.749,3.326 C -6.421,1.258 -3.358,0 0,0"
         style="fill:#0073ab;fill-opacity:1;fill-rule:nonzero;stroke:none"
         id="path4481"
         inkscape:connector-curvature="0" />
    </g>
  </g>
  <g
     inkscape:groupmode="layer"
     id="layer11"
     inkscape:label="LevelBox"
     transform="translate(598.00704,2.5121258)">
    <g
       id="g4391"
       transform="matrix(1,0,0,-1.0000313,-533.68284,34.147913)">
      <path
         d="m 0,0 c 0.003,-9.33 -7.556,-16.895 -16.885,-16.898 -9.329,-0.004 -16.894,7.555 -16.898,16.884 l 0,0.014 c 0,9.328 7.563,16.891 16.891,16.891 C -7.563,16.891 0,9.328 0,0"
         style="fill:#ef2b2d;fill-opacity:1;fill-rule:nonzero;stroke:none"
         id="path4393"
         inkscape:connector-curvature="0" />
    </g>
    <g
       id="g4395"
       transform="matrix(1,0,0,-1.0000313,-577.60954,68.984904)">
      <path
         d="M 0,0 C 17.204,-7.449 38.053,-8.115 54.07,-0.408 54.07,30.242 0,30.238 0,0"
         style="fill:#ef2b2d;fill-opacity:1;fill-rule:nonzero;stroke:none"
         id="path4397"
         inkscape:connector-curvature="0" />
    </g>
  </g>
</svg>
